<?xml version="1.0" standalone="no"?>
<!DOCTYPE svg PUBLIC "-//W3C//DTD SVG 1.1//EN" "http://www.w3.org/Graphics/SVG/1.1/DTD/svg11.dtd" >
<svg xmlns="http://www.w3.org/2000/svg">
<metadata>
Created by FontForge 20120731 at Fri Sep  9 13:38:48 2016
 By admin
</metadata>
<defs>
<font id="iconfont" horiz-adv-x="1024" >
  <font-face 
    font-family="iconfont"
    font-weight="500"
    font-stretch="normal"
    units-per-em="1024"
    panose-1="2 0 6 3 0 0 0 0 0 0"
    ascent="896"
    descent="-128"
    x-height="792"
    bbox="1 -212 1024 896"
    underline-thickness="50"
    underline-position="-100"
    unicode-range="U+0078-E681"
  />
<missing-glyph horiz-adv-x="374" 
d="M34 0v682h272v-682h-272zM68 34h204v614h-204v-614z" />
    <glyph glyph-name=".notdef" horiz-adv-x="374" 
d="M34 0v682h272v-682h-272zM68 34h204v614h-204v-614z" />
    <glyph glyph-name=".null" horiz-adv-x="0" 
 />
    <glyph glyph-name="nonmarkingreturn" horiz-adv-x="341" 
 />
    <glyph glyph-name="x" unicode="x" horiz-adv-x="1001" 
d="M281 543q-27 -1 -53 -1h-83q-18 0 -36.5 -6t-32.5 -18.5t-23 -32t-9 -45.5v-76h912v41q0 16 -0.5 30t-0.5 18q0 13 -5 29t-17 29.5t-31.5 22.5t-49.5 9h-133v-97h-438v97zM955 310v-52q0 -23 0.5 -52t0.5 -58t-10.5 -47.5t-26 -30t-33 -16t-31.5 -4.5q-14 -1 -29.5 -0.5
t-29.5 0.5h-32l-45 128h-439l-44 -128h-29h-34q-20 0 -45 1q-25 0 -41 9.5t-25.5 23t-13.5 29.5t-4 30v167h911zM163 247q-12 0 -21 -8.5t-9 -21.5t9 -21.5t21 -8.5q13 0 22 8.5t9 21.5t-9 21.5t-22 8.5zM316 123q-8 -26 -14 -48q-5 -19 -10.5 -37t-7.5 -25t-3 -15t1 -14.5
t9.5 -10.5t21.5 -4h37h67h81h80h64h36q23 0 34 12t2 38q-5 13 -9.5 30.5t-9.5 34.5q-5 19 -11 39h-368zM336 498v228q0 11 2.5 23t10 21.5t20.5 15.5t34 6h188q31 0 51.5 -14.5t20.5 -52.5v-227h-327z" />
    <glyph glyph-name="uniE600" unicode="&#xe600;" 
d="M764 684l-51 -51h-6q-9 -1 -11 -1h-1q-6 0 -13 -1l-28 -3h-1q-2 0 -3 -1h-1h-1l-136 -17l-137 17h-2q-1 1 -3 1l-29 3q-7 1 -13 1h-1v0q-2 0 -11 1h-6l-51 51l-197 -197l96 -154q16 -29 21 -34l221 -221q13 -13 30 -13q12 0 19 8l10 9l6 -6q10 -10 23 -10t24 8
q10 -8 23 -8q14 0 23 10l6 6l10 -9q7 -8 20 -8q16 0 30 13l220 221q5 5 21 34l96 154zM585 102q3 4 6 9q11 -11 26 -12l-7 -7q-6 -6 -13 -6q-5 0 -7 3l-10 9zM618 121q-7 0 -12 5q-10 10 -23 24l-4 3q-4 4 -5 6q-31 30 -50 49l-10 10q-7 7 -9 7h-1l-1 -1q-6 -5 -10 -8l-4 -3
l20 -19l50 -50l13 -13q1 -8 -4 -13l-17 -17l-9 -9q-4 -4 -9 -4t-10 4h-1l-2 2l-95 95h-2q-9 -1 -17 -1h-10l45 -44l17 -18q4 -8 -1 -14l-11 -11l-13 -12q-2 -3 -7 -3q-7 0 -13 6l-15 15l-49 49l-156 157q-6 7 -102 170l168 169l42 -42h7q5 -1 17 -2q11 -1 16 -1l75 -10
q-16 -3 -25 -16.5t-6 -30.5l6 -48q2 -16 13.5 -27t26.5 -11h4q37 2 63 3v0q3 -2 4 -3l187 -187q4 -5 4 -12t-4 -12l-31 -30q-5 -5 -11.5 -5t-11.5 5l-95 94l-2 -4q-5 -8 -8 -14l-2 -3l124 -124q5 -4 5 -11q1 -6 -3 -10l-27 -27q-4 -3 -9 -3zM670 202q2 3 4 5l31 30v1
q15 15 12 34t-29 42l-154 154l-1 1q-2 3 -3 3q8 9 11 12q2 1 3 2l9 8l-121 -5q-1 -1 -2 -1q-6 0 -11 5t-6 12l-6 48q-1 8 4 14q4 6 10 6l91 12l64 8l106 14q5 0 17 1q11 1 16 2h8l41 42l168 -169q-96 -163 -102 -170l-149 -149q-1 7 -8 14l-14 15q3 1 11 9zM495 89
q-2 -1 -5 -1q-5 0 -9 4l-6 6q3 3 4 7z" />
    <glyph glyph-name="uniE601" unicode="&#xe601;" 
d="M515.5 833q-91.5 0 -175 -35.5t-143.5 -96t-95.5 -143.5t-35.5 -174.5t35.5 -175t95.5 -143.5t143.5 -95.5t175 -35.5t174.5 35.5t143.5 95.5t96 143.5t35.5 175t-35.5 174.5t-96 143.5t-143.5 96t-174.5 35.5zM515 18q-99 0 -183 49t-133 133t-49 183.5t49 183.5
t133 133t183 49t183.5 -49t133 -133t48.5 -183.5t-48.5 -183.5t-133 -133t-183.5 -49zM377 212l80 -79l250 250l-250 251l-80 -80l171 -171z" />
    <glyph glyph-name="uniE602" unicode="&#xe602;" 
d="M628 808q-86 22 -174.5 11t-166.5 -54.5t-132 -111t-77 -151.5q-32 -113 -0.5 -224t116 -193t202.5 -112q58 -15 117 -15q124 0 233 64q8 4 10.5 13t-2.5 16.5t-14 9.5t-17 -2q-72 -43 -153.5 -54t-162.5 9q-106 28 -182 101.5t-104 173.5t0 202q21 75 70 136t119 100
t149.5 49t157.5 -10t141.5 -67t104 -114.5t51 -143.5t-10.5 -151q-15 -54 -46 -102q-4 -8 -2 -16.5t10 -13.5t17 -2.5t14 9.5q34 54 50 113q32 114 0.5 225t-116 193t-202.5 112zM535 585q0 9 -7 15.5t-16 6.5t-15.5 -6.5t-6.5 -15.5v-238q0 -9 6.5 -15.5t15.5 -6.5t16 6.5
t7 15.5v238zM512 261q-9 0 -15.5 -6.5t-6.5 -15.5v-43q0 -9 6.5 -15.5t15.5 -6.5t16 6.5t7 15.5v43q0 9 -7 15.5t-16 6.5z" />
    <glyph glyph-name="uniE603" unicode="&#xe603;" 
d="M854 597l-52 53q-7 7 -17.5 7t-17.5 -7l-313 -317l-148 152q-7 7 -17.5 7t-17.5 -7l-52 -53q-7 -7 -7 -17.5t7 -17.5l165 -169h1l36 -37l8 -8l8 -8q7 -8 17 -8t18 8l382 387q7 7 7 17.5t-7 17.5zM848 -46h-623q-61 0 -104 43t-43 104v623q0 61 43 104t104 43h623
q61 0 104 -43t43 -104v-623q0 -61 -43 -104t-104 -43zM225 853q-53 0 -91 -38t-38 -91v-623q0 -53 38 -91t91 -38h623q53 0 91 38t38 91v623q0 53 -38 91t-91 38h-623z" />
    <glyph glyph-name="uniE604" unicode="&#xe604;" 
d="M925 187h-790q-27 0 -46 19t-19 46v501q0 27 19 46t46 19h790q27 0 46 -19t19 -46v-501q0 -27 -19 -46t-46 -19zM135 798q-18 0 -31 -13t-13 -32v-501q0 -19 13 -32t31 -13h790q19 0 31.5 13t12.5 32v501q0 19 -12.5 32t-31.5 13h-790zM403 647zM336 375l-111 130
l114 124l30 -27l-89 -98l87 -102zM726 368l-30 27l90 98l-87 102l31 27l110 -130zM704 -84q0 -11 -8.5 -19t-20.5 -8h-244q-12 0 -20.5 8t-8.5 19v9q0 11 8.5 19t20.5 8h244q12 0 20.5 -8t8.5 -19v-9zM651 602q6 -6 4 -16t-10 -19l-172 -172q-9 -8 -19 -10t-16 4l-5 4
q-6 6 -4 16.5t11 18.5l172 172q8 9 18.5 11t16.5 -4z" />
    <glyph glyph-name="uniE605" unicode="&#xe605;" 
d="M616 467q-46 45 -112 45t-112 -45t-46 -108.5t46 -108.5q9 -9 22 -18q8 -5 17 -3t14.5 9t3.5 16t-9 15q-10 6 -16 12q-33 32 -33 77.5t33 77.5t80 32t80 -32t33 -77.5t-33 -77.5q-7 -6 -16 -12q-8 -5 -9.5 -14t3.5 -16.5t14.5 -9t17.5 3.5q13 8 22 17q46 45 46 108.5
t-46 108.5zM957 243q-58 52 -58 128t57 128q11 10 6 23q-15 43 -37 79.5t-52 70.5q-10 11 -24 7q-75 -23 -143 15t-86 113q-3 14 -17 16q-89 17 -178 1q-15 -3 -18 -17q-18 -74 -85.5 -112t-143.5 -16q-14 5 -23 -6q-60 -67 -89 -150q-5 -13 6 -23q57 -52 57.5 -128
t-57.5 -128q-11 -10 -6 -24q15 -42 37 -78.5t52 -70.5q10 -11 24 -7q75 22 143 -16t86 -112q3 -14 18 -17q89 -16 178 0q3 1 7 3q8 4 10 14q18 74 85.5 112t143.5 15q14 -4 24 7q59 67 89 150q4 13 -6 23zM848 109q-87 20 -164 -23t-103 -126q-66 -10 -133 0
q-26 83 -103 126q-77 44 -165 24q-21 26 -37.5 53.5t-28.5 58.5q61 63 61 149.5t-62 149.5q24 61 67 113q87 -20 164 23t103 126q67 10 133 0q26 -83 103.5 -126.5t164.5 -23.5q22 -26 38 -53.5t29 -58.5q-62 -64 -61.5 -150t61.5 -150q-24 -61 -67 -112z" />
    <glyph glyph-name="uniE606" unicode="&#xe606;" 
d="M604.5 768q-92.5 0 -158.5 -63.5t-66 -153.5q0 -61 32.5 -112t86.5 -79q-112 -34 -183 -125.5t-71 -207.5q0 -8 6 -14.5t15 -6.5t15.5 6.5t6.5 14.5q0 83 42 153.5t115 112t158 41.5q3 -1 6 0q91 2 155 65.5t64 151.5q0 90 -65.5 153.5t-158 63.5zM604 375
q-75 0 -128 51.5t-53 124.5t53 124.5t128 51.5t128.5 -51.5t53.5 -124.5t-53.5 -124.5t-128.5 -51.5zM859 273q-6 6 -15 6t-15.5 -6t-6.5 -14.5t6 -14.5q93 -90 93 -217q0 -8 6 -14.5t15 -6.5t15.5 6.5t6.5 14.5q0 70 -27 133t-78 113zM378 370v0q0 9 -6.5 15t-15.5 6
q-58 0 -99.5 42.5t-41.5 103t41.5 103t99.5 42.5q9 0 15.5 6t6.5 15t-6.5 15t-15.5 6q-76 0 -129.5 -55t-53.5 -132q0 -51 24.5 -94t65.5 -68q-87 -30 -143 -107.5t-56 -174.5q0 -9 6.5 -15t15.5 -6t15 6t6 15q0 106 73 181t176 75q9 0 15.5 6.5t6.5 14.5z" />
    <glyph glyph-name="uniE607" unicode="&#xe607;" 
d="M510 -66q-91 0 -175 35q-81 34 -143 96.5t-96 143.5q-36 83 -36 174.5t36 175.5q34 80 96 142.5t143 96.5q84 35 175 35t175 -35q81 -34 143 -96.5t96 -142.5q36 -84 36 -175.5t-36 -174.5q-34 -81 -96 -143.5t-143 -96.5q-84 -35 -175 -35zM510 794q-111 0 -205.5 -55
t-149.5 -149.5t-55 -206t55 -206t149.5 -149.5t205.5 -55t205.5 55t149.5 149.5t55 206t-55 206t-149.5 149.5t-205.5 55zM510 794zM643 521q0 57 -37.5 92.5t-96.5 35.5q-58 0 -95 -39t-37 -97v-63h-16q-28 0 -47.5 -19.5t-19.5 -46.5v-200q0 -27 19.5 -46.5t47.5 -19.5
h298q28 0 47.5 19.5t19.5 46.5v200q0 27 -19.5 46.5t-47.5 19.5h-16h-33h-200v63q0 44 27.5 73.5t71.5 29.5q45 0 73 -26t28 -69q0 -2 0.5 -4.5t4.5 -6.5t11 -4t11 3.5t5 7.5zM693 184q0 -13 -10 -23t-24 -10h-298q-14 0 -24 10t-10 23v200q0 13 10 23t24 10h298
q14 0 24 -10t10 -23v-200zM693 184zM510 350q-14 0 -23.5 -9.5t-9.5 -23.5q0 -19 16 -29v-54q0 -7 5 -12t12 -5t12 5t5 12v54q16 10 16 29q0 14 -9.5 23.5t-23.5 9.5zM510 350z" />
    <glyph glyph-name="uniE608" unicode="&#xe608;" 
d="M533 -41q-91 0 -174.5 35.5t-143.5 96t-96 143.5t-36 174.5t36 174.5t96 143.5t143.5 96t174.5 35.5t174.5 -35.5t143.5 -96t95.5 -143.5t35.5 -174q0 -120 -59 -224q-4 -7 -12.5 -9.5t-16 2t-10 13t1.5 16.5q54 93 54 202q0 110 -54.5 204t-148.5 148.5t-204.5 54.5
t-204 -54.5t-148 -148.5t-54.5 -204.5t54.5 -204t148 -148t204.5 -54.5q132 0 238 77q7 5 16 3.5t14 -8.5t3.5 -16t-8.5 -14q-118 -85 -263 -85zM752 103h-438v612h438v-612zM340 128h386v561h-386v-561zM506 195h51v-30h-51v30z" />
    <glyph glyph-name="uniE609" unicode="&#xe609;" 
d="M966 150q0 -26 -18 -44t-48 -17q-9 0 -20 -0.5t-18 0.5q-8 0 -14 2t-9.5 4.5t-6 9t-4 11t-4 16t-4.5 18.5q-18 68 -78 151t-87 98q-19 12 -23.5 18t1 13.5t15 17t18 35t8.5 60.5q0 59 -22 103q-5 11 -6.5 16.5t-1.5 12.5t7.5 10t22.5 2q61 -2 103.5 -43.5t42.5 -100.5
q0 -37 -17.5 -68.5t-47.5 -51.5q14 -4 24 -6q79 -23 133 -103.5t54 -163.5v0v0zM752 80q0 -67 -71 -67q-49 1 -183.5 0.5t-219.5 -0.5h-140q-25 1 -40 6t-21.5 16t-8 20t-1.5 25q0 114 69.5 207t175.5 122q-46 25 -69.5 68t-23.5 98q0 77 56 132.5t134.5 55.5t134.5 -55.5
t56 -132.5q0 -54 -25 -97.5t-71 -68.5q107 -30 178 -123.5t70 -205.5v0v0zM752 80z" />
    <glyph glyph-name="uniE60A" unicode="&#xe60a;" 
d="M687 302q54 42 84.5 103t30.5 131q0 125 -88.5 212.5t-214 87.5t-214 -87.5t-88.5 -212.5q0 -66 28 -125t76 -101q-77 -54 -121 -142t-44 -188q0 -9 6 -15.5t15 -6.5t15 6.5t6 15.5q0 94 43 175.5t117 127.5q74 -46 161 -46q81 0 150 39q35 -23 63 -56q6 -7 16 -7
q8 0 14 5q7 6 7.5 14.5t-5.5 15.5q-25 30 -57 54zM240 536q0 107 76 182t183.5 75t183.5 -75t76 -181.5t-76 -181.5t-183.5 -75t-183.5 75t-76 181zM240 536zM499 370q-50 0 -86 30.5t-36 73.5q0 9 6.5 15t15 6t15 -6t6.5 -15q0 -25 23.5 -43t56 -18t56 18t23.5 43q0 9 6 15
t15 6t15.5 -6t6.5 -15q0 -43 -36 -73.5t-87 -30.5zM499 370zM906 87h-107v107h-43v-107h-107v-43h107v-107h43v107h107v43zM906 87z" />
    <glyph glyph-name="uniE60B" unicode="&#xe60b;" 
d="M515.5 833q-91.5 0 -175 -35.5t-143.5 -96t-95.5 -143.5t-35.5 -174.5t35.5 -175t95.5 -143.5t143.5 -95.5t175 -35.5t174.5 35.5t143.5 95.5t96 143.5t35.5 175t-35.5 174.5t-96 143.5t-143.5 96t-174.5 35.5zM515 18q-99 0 -183 49t-133 133t-49 183.5t49 183.5
t133 133t183 49t183.5 -49t133 -133t48.5 -183.5t-48.5 -183.5t-133 -133t-183.5 -49zM680 212l-79 -79l-251 250l251 251l79 -80l-171 -171z" />
    <glyph glyph-name="uniE60C" unicode="&#xe60c;" 
d="M572 -68h-128v899h128v-899zM572 -68h-128v899h128v-899zM958 318h-899v127h899v-127z" />
    <glyph glyph-name="uniE60D" unicode="&#xe60d;" 
d="M741 371q-16 3 -20.5 9.5t-1.5 11.5l4 5l3 6q2 4 6 16t4.5 23.5t-4.5 26.5t-16 27q-15 14 -38.5 18.5t-46.5 1t-44.5 -9.5t-34.5 -11l-13 -6q-11 -3 -17.5 -4.5t-10.5 0.5t-6 3.5t-1.5 7t1 9.5t2.5 13t3 15q0 15 -2.5 28.5t-11 28t-23.5 22.5t-42 7.5t-63 -13.5
q-36 -12 -73.5 -36.5t-66 -51.5t-51 -51.5t-35 -40.5t-11.5 -16q-22 -29 -36.5 -58.5t-20.5 -49t-8 -38.5t-2 -25v-9q6 -50 30.5 -90t58.5 -64.5t80 -41.5t88.5 -25t89.5 -12q78 -6 160.5 12.5t154.5 63.5t101 107q17 37 17.5 69.5t-11 53t-29.5 36t-34 22.5t-29 10zM422 46
q-112 -5 -191 44t-79 124q0 74 78.5 128t191.5 59q115 5 193 -38t78 -116q0 -76 -79.5 -136t-191.5 -65zM392 335q-30 -3 -54 -14t-38 -25t-23.5 -30.5t-12.5 -32t-4.5 -28.5t-1.5 -21l1 -7v-5q0 -3 2 -12t6 -17t12.5 -17.5t20.5 -16.5q68 -33 128 -19.5t96 60.5
q14 17 19 43t-2 52.5t-23.5 49t-49.5 34t-76 6.5zM354 137.5q-21 -2.5 -35.5 8t-14.5 28.5t13.5 33.5t34.5 17.5q23 2 38 -9.5t15 -29.5t-15 -32t-36 -16.5zM443 213q-7 -5 -14.5 -4.5t-11.5 6.5q-4 7 -2.5 15.5t8.5 13.5q9 6 16.5 5t11.5 -7.5t1.5 -14.5t-9.5 -14zM959 450
q1 4 1 8q3 22 3 41q0 111 -79 190t-190 79q-16 0 -26.5 -11t-10.5 -26.5t10.5 -26t26.5 -10.5q80 0 137.5 -57.5t57.5 -137.5q0 -19 -4 -36h1v-4q0 -16 10.5 -27t26.5 -11q13 0 23 8t13 20v1zM842 485q1 9 1 14q0 61 -43.5 105t-105.5 44q-13 0 -22 -9t-9 -22t9 -22t22 -9
q36 0 61.5 -25.5t25.5 -61.5q0 -6 -1 -12h1l-1 -1v-2q0 -13 9 -22t22 -9q12 0 20.5 7.5t9.5 19.5h1v1v1v2v1z" />
    <glyph glyph-name="uniE60E" unicode="&#xe60e;" 
d="M697 500q8 0 14 -1q-18 99 -109 165t-212 66q-88 0 -163 -36.5t-118.5 -99t-43.5 -136.5q0 -65 34 -121.5t94 -94.5l3 -2l-32 -98l118 59q3 -1 5 -1q50 -14 103 -14q10 0 22 1q-11 32 -11 65q0 102 87 175t209 73zM503 596q19 0 32.5 -13t13.5 -31.5t-13.5 -31.5
t-32.5 -13t-32.5 13t-13.5 31.5t13.5 31.5t32.5 13zM277 507q-19 0 -32.5 13t-13.5 31.5t13.5 31.5t32.5 13t32.5 -13t13.5 -31.5t-13.5 -31.5t-32.5 -13zM425 250q0 -95 80.5 -162.5t194.5 -67.5q45 0 87 12l4 1l100 -50l-27 83q2 1 3 2q50 32 78.5 79.5t28.5 102.5
q0 95 -80 162t-194 67t-194.5 -67t-80.5 -162zM757 329q0 15 11 26t27 11t27.5 -11t11.5 -26t-11.5 -26t-27.5 -11t-27 11t-11 26zM566 329q0 15 11 26t27 11t27.5 -11t11.5 -26t-11.5 -26t-27.5 -11t-27 11t-11 26z" />
    <glyph glyph-name="uniE60F" unicode="&#xe60f;" 
d="M887 598q1 16 -10 27l-197 196q-11 11 -27 10h-432q-27 0 -46.5 -19.5t-19.5 -47.5v-765q0 -28 19.5 -47.5t46.5 -19.5h600q28 0 47.5 19.5t19.5 47.5v599h-1zM655 749l150 -151h-150v151zM821 -1h-600v765h367v-199q0 -14 9.5 -24t23.5 -10h200v-532z" />
    <glyph glyph-name="uniE610" unicode="&#xe610;" 
d="M890 314q-10 11 -25 11.5t-27 -9.5l-299 -267v749q0 15 -10.5 25.5t-25.5 10.5t-26 -10.5t-11 -25.5v-744l-299 255q-11 10 -26.5 9t-25.5 -12t-8.5 -26t12.5 -25l364 -311q10 -9 24 -9t24 9l356 319q12 10 12.5 25t-9.5 26z" />
    <glyph glyph-name="uniE611" unicode="&#xe611;" 
d="M514 537q-75 0 -128 -52.5t-53 -127.5t53 -127.5t127.5 -52.5t127.5 52.5t53 127.5t-53 127.5t-127 52.5zM514 537zM910 646h-215v41q0 22 -15.5 37.5t-37.5 15.5h-257q-21 0 -36.5 -15.5t-15.5 -37.5v-41h-216q-22 0 -37.5 -12.5t-15.5 -29.5v-540q0 -17 15.5 -29.5
t37.5 -12.5h793q22 0 37.5 12.5t15.5 29.5v540q0 17 -15.5 29.5t-37.5 12.5zM514 112q-102 0 -174 71.5t-72 173.5t72 173.5t173.5 71.5t173.5 -71.5t72 -173.5t-72 -173.5t-173 -71.5zM514 112z" />
    <glyph glyph-name="uniE612" unicode="&#xe612;" 
d="M490 661l-430 -412l50 -38l400 375l399 -359l50 39l-428 394l-21 20v0z" />
    <glyph glyph-name="uniE613" unicode="&#xe613;" 
d="M541 155l430 412l-50 38l-401 -375l-399 359l-49 -39l427 -395l21 -19h1z" />
    <glyph glyph-name="uniE614" unicode="&#xe614;" 
d="M961 642l-448 -629l-451 629h899z" />
    <glyph glyph-name="uniE615" unicode="&#xe615;" 
d="M647 432l-413 431l-37 -51l375 -400l-359 -399l39 -50l394 428l20 21v0z" />
    <glyph glyph-name="uniE616" unicode="&#xe616;" 
d="M181 396l1 -1h-1l20 -21l395 -427l38 49l-358 399l375 400l-38 51l-412 -430z" />
    <glyph glyph-name="uniE617" unicode="&#xe617;" 
d="M517 786q-122 0 -226 -50.5t-164 -136.5t-60 -188q0 -76 35 -144.5t97 -120.5l-24 -129l107 74q108 -55 235 -55q122 0 225.5 50t163.5 136.5t60 188.5t-60 188t-163.5 136.5t-225.5 50.5zM517 66q-120 0 -221 52l-16 8l-63 -43l15 75l-14 11q-58 49 -89.5 111.5
t-31.5 130.5q0 93 56 172.5t153 126t210.5 46.5t210.5 -46.5t153 -126t56 -173t-56 -173t-153 -125.5t-210 -46zM517 66zM322 431q-13 0 -21.5 -8.5t-8.5 -21t8.5 -21.5t21 -9t21.5 9t9 21.5t-9 21t-21 8.5zM322 431zM517 431q-13 0 -21.5 -8.5t-8.5 -21t8.5 -21.5t21 -9
t21.5 9t9 21.5t-9 21t-21 8.5zM517 431zM711 431q-12 0 -21 -8.5t-9 -21t9 -21.5t21.5 -9t21 9t8.5 21.5t-8.5 21t-21.5 8.5zM711 431z" />
    <glyph glyph-name="uniE618" unicode="&#xe618;" 
d="M472 457h113v-112q0 -7 4.5 -12t11.5 -5h27q7 0 11.5 5t4.5 12v112h139q7 0 12 5t5 12v26q0 7 -5 12t-12 5h-139v139q0 6 -4.5 11t-11.5 5h-27q-7 0 -11.5 -5t-4.5 -11v-139h-113q-6 0 -11 -5t-5 -12v-26q0 -7 5 -12t11 -5zM659 7h-525v524h75v75h-75q-31 0 -53 -22
t-22 -53v-524q0 -31 22 -53t53 -22h525q31 0 53 22t22 53v75h-75v-75zM883 831h-524q-31 0 -53 -22t-22 -53v-525q0 -31 22 -53t53 -22h524q31 0 53 22t22 53v525q0 31 -22 53t-53 22zM883 231h-524v525h524v-525z" />
    <glyph glyph-name="uniE619" unicode="&#xe619;" 
d="M480 328q109 0 186 77.5t77 186.5t-77 186t-186 77t-186.5 -77t-77.5 -186q0 -77 40.5 -140.5t107.5 -96.5q-94 -28 -164 -98q-56 -56 -86 -128t-30 -151q0 -9 6.5 -15.5t16 -6.5t15.5 6.5t6 15.5q0 145 103 248q99 99 239 103q5 -1 10 -1zM260 592q0 90 64.5 154.5
t155.5 64.5t155 -64.5t64 -154.5t-63 -154t-153 -66q-2 1 -3 1h-10q-88 4 -149 67.5t-61 151.5zM941 28l-204 228q-4 5 -10.5 5t-10.5 -5q-11 -12 0 -23l178 -200h-503q-6 0 -10.5 -5t-4.5 -12t4.5 -11.5t10.5 -4.5h540q10 0 13.5 10t-3.5 18z" />
    <glyph glyph-name="uniE61A" unicode="&#xe61a;" 
d="M511 629q125 0 228 -67t155 -176h67q-55 135 -177 219t-273 84t-273 -84t-177 -219h67q52 109 155 176t228 67zM511 629zM511 143q-125 0 -228 67t-155 176h-67q55 -135 177 -219t273 -84t273 84t177 219h-67q-52 -109 -155 -176t-228 -67zM511 143zM349 386
q0 -67 47.5 -114.5t114.5 -47.5t114.5 47.5t47.5 114.5t-47.5 114.5t-114.5 47.5t-114.5 -47.5t-47.5 -114.5zM612 386q0 -42 -29.5 -71.5t-71.5 -29.5t-71.5 29.5t-29.5 71.5t29.5 71.5t71.5 29.5t71.5 -29.5t29.5 -71.5zM612 386z" />
    <glyph glyph-name="uniE61B" unicode="&#xe61b;" 
d="M948.5 646.5q-15.5 15.5 -37.5 15.5t-37 -15l-496 -503l-223 225q-16 16 -38 16t-37.5 -16t-15.5 -38t16 -37l261 -263q16 -16 38 -16t37 16q1 0 1.5 1.5t1.5 2.5l529 536q16 16 16 38t-15.5 37.5z" />
    <glyph glyph-name="uniE61C" unicode="&#xe61c;" 
d="M933 482q-10 0 -17 -6.5t-7 -16.5v-417q0 -20 -13.5 -33.5t-33.5 -13.5h-705q-20 0 -34 13.5t-14 33.5v681q0 19 14 33t34 14h454q10 0 17 6.5t7 16.5t-7 17t-17 7h-459q-37 0 -63.5 -26.5t-26.5 -63.5v-690q0 -37 26.5 -63.5t63.5 -26.5h715q37 0 63 26.5t26 63.5v422
q0 10 -6.5 16.5t-16.5 6.5v0zM496 181l447 447q20 20 18.5 50t-23.5 53l-43 42q-22 22 -52 23.5t-50 -18.5l-447 -447zM827 745q7 8 18.5 7t19.5 -9l43 -42q8 -9 8.5 -20.5t-6.5 -18.5l-50 -50l-82 84zM825 577l-333 -333l-83 83l334 334zM346 330l-46 -169q-4 -11 5 -20
t21 -6l168 46l-34 35l-110 -30l30 109zM346 330z" />
    <glyph glyph-name="uniE61D" unicode="&#xe61d;" 
d="M513 102q-180 0 -315 85q-64 40 -99.5 90t-35.5 100.5t35.5 100.5t99.5 90q135 85 315 85t315 -85q64 -40 99.5 -90t35.5 -100.5t-35.5 -100.5t-99.5 -90q-135 -85 -315 -85zM513 623q-171 0 -299 -81q-57 -35 -88.5 -78.5t-31.5 -85.5t31.5 -86t88.5 -79
q128 -80 299 -80t299 80q57 35 88.5 79t31.5 86t-31.5 85.5t-88.5 78.5q-128 81 -299 81zM513 623zM513 228q-62 0 -106 44t-44 105.5t44 105.5t106 44t105.5 -44t43.5 -105.5t-43.5 -105.5t-105.5 -44zM513 496q-49 0 -83.5 -35t-34.5 -83.5t34.5 -83.5t83.5 -35t83.5 35
t34.5 84t-34.5 83.5t-83.5 34.5zM513 496zM436 358q-6 0 -10.5 4.5t-4.5 11.5q-1 42 31 70q12 10 22 -2t-2 -22q-21 -18 -20 -46q0 -6 -4.5 -10.5t-10.5 -5.5h-1zM436 358z" />
    <glyph glyph-name="uniE61E" unicode="&#xe61e;" 
d="M926 561q-34 80 -96 142.5t-143 96.5q-83 35 -175 35q-143 0 -259 -82q-56 -39 -97 -93q-42 -54 -65 -118q-29 -75 -29 -156q0 -92 36 -175q34 -81 96 -143.5t143 -96.5q84 -35 175.5 -35t174.5 35q81 34 143 96.5t96 143.5q36 83 36 174.5t-36 175.5zM679 769
q68 -29 121 -79.5t86 -116.5l-207 -194v5q0 7 -1 13zM512 804q70 0 137 -22l-1 -301q-22 31 -56 50l-240 241q77 32 160 32zM323 759l206 -208q-10 1 -19 1h-6h-376q29 68 79.5 121t115.5 86zM93 386q0 70 23 136h297q-18 -13 -32 -30l-263 -247q-25 68 -25 141zM345 349
l-1 -347q-71 31 -126.5 86t-87.5 126l215 202q-3 -16 -3 -32q0 -18 3 -35zM510 522q57 0 97.5 -40.5t40.5 -97.5t-40.5 -97.5t-97.5 -40.5t-97 40.5t-40 97.5t40 97.5t97 40.5zM512 -33q-71 0 -137 23l1 292q23 -30 57 -48l237 -236q-76 -31 -158 -31zM700 11l-205 205
q8 -1 15 -1q37 0 70 15l320 -1q-28 -71 -80 -127t-120 -91zM912 260l-286 1q29 28 43 66l231 216q31 -75 31 -157q0 -65 -19 -126z" />
    <glyph glyph-name="uniE61F" unicode="&#xe61f;" 
d="M315 189q8 -8 19 -8t20 8l163 163l163 -163q8 -8 19.5 -8t20 8t8.5 19.5t-9 19.5l-163 163l163 163q9 9 9 20t-8.5 19.5t-20 8.5t-19.5 -8l-163 -163l-163 163q-9 8 -20 8t-19.5 -8.5t-8.5 -19.5t9 -20l163 -163l-163 -163q-9 -8 -9 -19.5t9 -19.5v0zM517 -58
q90 0 172 34t145 98q64 63 98 145.5t34 171.5q0 90 -34 172.5t-98 145.5q-63 64 -145 98t-172 34t-172.5 -34t-145.5 -98q-64 -63 -98 -145.5t-34 -172.5t34 -172t98 -145q63 -64 145.5 -98t172.5 -34v0zM239 669q55 56 127 86t151 30t150.5 -30t127.5 -85.5t85.5 -127.5
t29.5 -151t-29.5 -150.5t-85.5 -127.5t-127.5 -85.5t-150.5 -29.5t-150.5 29.5t-127.5 85.5t-86 127.5t-30 150.5t30 151t86 127v0zM239 669z" />
    <glyph glyph-name="uniE620" unicode="&#xe620;" 
d="M510.5 824q-91.5 0 -175 -35.5t-143.5 -96t-95.5 -143.5t-35.5 -174.5t35.5 -175t95.5 -143.5t143.5 -95.5t175 -35.5t174.5 35.5t143.5 95.5t96 143.5t35.5 175t-35.5 174.5t-96 143.5t-143.5 96t-174.5 35.5zM787 208l-110 -111l-167 167l-166 -167l-111 111l167 166
l-167 166l111 111l166 -166l167 166l110 -111l-166 -166z" />
    <glyph glyph-name="uniE621" unicode="&#xe621;" 
d="M522 835q-92 0 -175 -36t-143.5 -96t-96 -143.5t-35.5 -174.5t35.5 -174.5t96 -143.5t143.5 -96t174.5 -36t175 36t143.5 96t95.5 143.5t35.5 174.5t-35.5 174.5t-95.5 143.5t-143.5 96t-174.5 36zM914 385q0 -81 -31 -153q-29 -70 -84 -124q-53 -54 -124 -85
q-73 -30 -153.5 -30t-152.5 30q-70 30 -125 85q-53 53 -84 124q-31 72 -31 153t31 153q30 70 84 124t125 85q72 30 152.5 30t153.5 -30q70 -30 124 -85q54 -53 84 -124q31 -72 31 -153zM914 385zM783 289q-5 3 -12 3q-18 0 -26 -16q-15 -30 -49 -59q-70 -60 -174 -60
q-106 0 -174 59q-14 13 -25.5 27.5t-16.5 22.5l-4 9q-7 17 -26 17q-7 0 -11 -3q-11 -5 -16 -15q-4 -11 0 -22q2 -3 6.5 -12.5t19.5 -29t34 -36.5q37 -33 84 -51q58 -23 129 -23q69 0 127 23q47 18 85 51q42 37 62 77q5 11 1.5 22t-14.5 16zM783 289zM330 441h7q14 0 23.5 10
t9.5 23v60q0 13 -9.5 23t-23.5 10h-7q-14 0 -23.5 -10t-9.5 -23v-60q0 -13 9.5 -23t23.5 -10zM330 441zM707 441h7q14 0 23.5 10t9.5 23v60q0 13 -9.5 23t-23.5 10h-7q-14 0 -23.5 -10t-9.5 -23v-60q0 -13 9.5 -23t23.5 -10zM707 441z" />
    <glyph glyph-name="uniE622" unicode="&#xe622;" 
d="M513 833q-91 0 -174.5 -36t-143.5 -96t-96 -143.5t-36 -174.5t36 -174.5t96 -143.5t143.5 -96t174.5 -36t174.5 36t143.5 96t96 143.5t36 174.5t-36 174.5t-96 143.5t-143.5 96t-174.5 36zM512.5 16q-99.5 0 -184 49t-133.5 133.5t-49 184t49 184t133.5 134t184 49.5
t184.5 -49.5t134 -134t49 -184t-49 -184t-134 -133.5t-184.5 -49zM726 272l-172 111v226q0 17 -12 29t-29 12t-29 -12t-12 -29v-271l209 -136q11 -7 23 -7q22 0 34 19q10 15 6.5 31.5t-18.5 26.5z" />
    <glyph glyph-name="uniE623" unicode="&#xe623;" 
d="M963 512q-11 28 -48 41q-70 24 -211 69q-91 114 -140 172q-17 20 -40.5 25.5t-44.5 -6.5q-15 -8 -26 -22q-49 -65 -133 -180q-138 -53 -212 -83q-31 -13 -39 -46q-8 -30 10 -56q44 -64 130 -182q7 -149 13 -224q2 -38 28 -56q25 -16 56 -7q40 12 110.5 40t78.5 31
q14 -4 113 -26t135 -31q32 -8 54 4q30 16 31 60q2 80 2 227q81 123 121 187q22 34 12 63zM910 474q-55 -88 -125 -192q-4 -6 -4 -13q0 -153 -2 -233q0 -16 -5.5 -19t-18.5 1q-23 5 -57 13t-67 15.5t-63 14t-49 11.5l-19 4q-7 2 -14 -1l-7 -3q-7 -2 -18.5 -7t-27 -11
t-33.5 -13t-36 -13.5t-37.5 -13t-35.5 -11.5q-8 -3 -14 1t-7 19q-7 98 -13 230q0 7 -4 13q-72 98 -134 187q-6 8 -3 18q2 8 10 12h1q112 47 217 86q7 3 11 8q96 132 137 185q4 6 10 9q12 7 25 -8q77 -92 143 -176q5 -6 12 -8q101 -31 217 -71q15 -5 18 -12q2 -7 -7 -22z" />
    <glyph glyph-name="uniE624" unicode="&#xe624;" 
d="M870 720l-327 106q-27 9 -55 0l-327 -106q-21 -6 -33.5 -23.5t-12.5 -39.5v-233q0 -100 45.5 -190.5t126.5 -150.5l189 -139q18 -13 40 -13t40 13l188 139q81 60 127 150.5t46 190.5v233q0 22 -13 39.5t-34 23.5zM872 424q0 -90 -41 -171t-113 -134l-189 -139
q-13 -9 -27 0l-188 139q-73 53 -114 134t-41 171v233q0 16 16 21l327 106q7 2 14 2t14 -2l327 -106q15 -5 15 -21v-233zM872 424zM716 578h-401q-9 0 -15.5 -6.5t-6.5 -16t6.5 -16t15.5 -6.5h178v-332q0 -9 7 -15.5t16 -6.5t15.5 6.5t6.5 15.5v332h178q10 0 16.5 6.5t6.5 16
t-6.5 16t-16.5 6.5zM716 578z" />
    <glyph glyph-name="uniE625" unicode="&#xe625;" 
d="M866 707q-16 15 -39 15h-3q-9 -1 -25 -1q-63 0 -113 13q-25 6 -54.5 24.5t-56.5 41t-30 24.5q-14 9 -31 9q-19 0 -32 -9q-2 -2 -18 -17t-31 -27.5t-40 -26.5t-48 -19q-50 -13 -114 -13q-15 0 -24 1h-4q-22 0 -39 -15q-18 -17 -18 -41v-141q0 -106 19.5 -196t48.5 -148.5
t69 -105t73.5 -71t70.5 -42t52 -21.5t25 -6q5 -1 10 -1t10 1q10 2 25 6t52.5 21.5t71 41.5t74 71t69.5 105.5t48.5 148.5t19.5 196v141q0 24 -18 41v0zM827 525q0 -77 -10.5 -144.5t-28.5 -116.5t-41.5 -90.5t-49.5 -69t-52 -49t-49.5 -33.5t-42 -19.5t-28.5 -9.5l-11 -3
q-7 1 -18 4t-43.5 18.5t-61.5 37t-65 64t-62 95.5t-43.5 135.5t-17.5 180.5v141q11 -1 28 -1q71 0 128 14q35 8 73.5 32.5t60.5 45.5l21 20q9 -9 24.5 -22.5t57.5 -40.5t76 -35q57 -14 127 -14h15q7 0 10 1h3v-141v0zM827 525zM599 134h-62l2 13q3 22 3 47v68v14
q-21 -27 -56 -56q-33 -28 -70 -49l-10 -6l-5 10q-6 10 -14 18q0 -27 2 -46l2 -13h-61l1 13q3 27 3 58v159v19q-11 -15 -31 -37l-10 -11l-8 13q-10 16 -19 27l-7 8l7 7q63 62 94 145q16 39 19 66l2 13l59 -19l-5 -10l11 -2q17 -2 54 -2h146q37 0 54 2l14 2l-2 -15
q-2 -14 -2 -43v-65q0 -26 2 -43l2 -13l-14 1q-22 2 -51 2h-55v-30h90q27 0 47 2l13 2v-59l-12 1q-25 3 -47 3h-71q23 -28 51 -51h1q40 -33 87 -54l15 -7l-11 -11q-11 -12 -21 -29l-6 -10l-10 6q-46 28 -81 58q-27 24 -45 47v-15v-68q0 -30 3 -47zM290 382l6 -10zM387 466
v-245q49 24 91 61q24 22 42 46h-64q-27 0 -47 -3l-13 -2v60l13 -2q20 -2 47 -2h86v30h-44q-31 0 -52 -2l-13 -1l1 14q2 25 2 43v65q0 24 -2 43l-1 8q-3 -7 -7 -21q-13 -41 -39 -92zM489 460h167v70h-167v-70z" />
    <glyph glyph-name="uniE626" unicode="&#xe626;" 
d="M365 180h-37q-9 0 -15.5 6.5t-6.5 16t6.5 16.5t15.5 7h37q9 0 15.5 -7t6.5 -16.5t-6.5 -16t-15.5 -6.5zM365 507h-37q-9 0 -15.5 6.5t-6.5 16t6.5 16.5t15.5 7h37q9 0 15.5 -7t6.5 -16.5t-6.5 -16t-15.5 -6.5zM365 344h-37q-9 0 -15.5 6.5t-6.5 16t6.5 16t15.5 6.5h37
q9 0 15.5 -6.5t6.5 -16t-6.5 -16t-15.5 -6.5zM510 -65q-91 0 -174.5 35.5t-143.5 95.5t-96 143.5t-36 175t36 174.5t96 143.5t143.5 96t174.5 35.5q98 0 186 -40q10 -9 10 -18t-8 -14t-17 -1q-81 37 -171 37q-112 0 -207.5 -55.5t-150.5 -150.5t-55 -207.5t55 -207.5
t150.5 -150.5t207.5 -55.5t207.5 55.5t150.5 150.5t55 207q0 47 -10 92q-4 21 12 26t22 -11q1 -3 2 -7q11 -49 11 -100q0 -91 -36 -174.5t-96 -143.5t-143.5 -95.5t-174.5 -35.5zM474 226h290q10 0 16.5 -7t6.5 -16.5t-6.5 -16t-16.5 -6.5h-290q-10 0 -16.5 6.5t-6.5 16
t6.5 16.5t16.5 7zM474 507q-10 0 -16.5 6.5t-6.5 16t6.5 16.5t16.5 7h81q10 0 16.5 -7t6.5 -16.5t-6.5 -16t-16.5 -6.5h-81zM577 356l-3 -3q-7 -9 -19 -9h-81q-10 0 -16.5 6.5t-6.5 16t6.5 16t16.5 6.5h72l315 306q6 6 15.5 6t16.5 -6.5t7 -16t-7 -15.5zM577 356z" />
    <glyph glyph-name="uniE627" unicode="&#xe627;" 
d="M523 386zM71 386.5q0 91.5 36 175t96.5 144t144 96.5t175.5 36t175.5 -36t144 -96.5t96 -144t35.5 -175t-35.5 -175.5t-96 -144.5t-144 -96t-175.5 -35.5t-175.5 35.5t-144 96t-96.5 144.5t-36 175.5zM512 607q-9 0 -15.5 -6.5t-6.5 -15.5v-238q0 -9 6.5 -15.5t15.5 -6.5
t16 6.5t7 15.5v238q0 9 -7 15.5t-16 6.5zM512 261q-9 0 -15.5 -6.5t-6.5 -15.5v-43q0 -9 6.5 -15.5t15.5 -6.5t16 6.5t7 15.5v43q0 9 -7 15.5t-16 6.5z" />
    <glyph glyph-name="uniE628" unicode="&#xe628;" 
d="M520 -67q-91 0 -174.5 35.5t-143.5 96t-96 143.5t-36 174.5t36 174.5t96 143.5t143.5 96t174.5 35.5t174.5 -35.5t143.5 -96t96 -143.5t36 -174.5t-36 -174.5t-96 -143.5t-143.5 -96t-174.5 -35.5zM520 785q-109 0 -202 -54t-146.5 -146.5t-53.5 -201.5t53.5 -202
t146.5 -147t202 -54t201.5 54t146.5 147t54 202t-54 201.5t-146.5 146.5t-201.5 54zM796 533l-345 -341h-3l-204 199v1q-6 7 -6 17q0 12 8 20.5t20 8.5q11 0 18 -7q3 -2 3 -3l162 -161l306 305q8 10 21 10q12 0 20 -8.5t8 -20.5t-8 -20zM796 533z" />
    <glyph glyph-name="uniE629" unicode="&#xe629;" 
d="M513 -67q-92 0 -175 36t-143.5 96t-96 143.5t-35.5 174.5t35.5 174.5t96 143.5t143.5 96t174.5 36t174.5 -36t143.5 -96t96 -143.5t35.5 -174.5t-35.5 -174.5t-96 -143.5t-143.5 -96t-174 -36zM513 804q-114 0 -211 -56.5t-153.5 -153.5t-56.5 -211t56.5 -211
t153.5 -153.5t211 -56.5t210.5 56.5t153 153.5t56.5 211t-56.5 211t-153 153.5t-210.5 56.5zM513 804zM837 78q-7 0 -11 5q-103 115 -255 136q-12 2 -12.5 13.5t10.5 15.5q63 18 103 71.5t40 119.5q0 82 -58.5 140.5t-141 58.5t-141 -58.5t-58.5 -140.5q0 -66 40 -119.5
t103 -71.5q11 -4 10.5 -15.5t-12.5 -13.5q-152 -21 -255 -136q-9 -11 -20 -1t-1 21q91 102 225 136q-55 30 -87 83.5t-32 116.5q0 94 67 161t161.5 67t161.5 -67t67 -161q0 -63 -32 -116.5t-86 -83.5q133 -34 225 -136q9 -11 -2 -21q-4 -4 -9 -4zM837 78z" />
    <glyph glyph-name="uniE62A" unicode="&#xe62a;" 
d="M162 -48q-40 0 -69 28.5t-29 69.5v340q0 41 29.5 72.5t68.5 31.5h96q89 0 149 61t60 152v25q0 38 30 67.5t70 29.5h3q31 0 56.5 -18.5t35.5 -47.5l6 -18q29 -88 7 -176l-3 -13q-2 -17 -12 -40h207q47 0 76 -39q31 -40 17 -87l-105 -365q-8 -32 -34.5 -52.5t-59.5 -20.5
h-599zM162 444q-18 0 -33 -17t-15 -37v-340q0 -20 14 -34t34 -14h599q16 0 29 10t17 26l105 366q7 23 -8 43q-15 19 -37 19h-282v50h17q5 4 12.5 20.5t8.5 23.5v1v3l4 17q19 74 -6 148l-6 17q-5 15 -17.5 24t-27.5 9h-3q-19 0 -34.5 -14.5t-15.5 -32.5v-25q0 -113 -74 -188
t-185 -75h-96zM162 444zM761 -30h-599q-33 0 -56 23.5t-23 56.5v340q0 34 24 59.5t55 25.5h96q97 0 162 66.5t65 165.5v25q0 31 25 55t57 24h3q25 0 45.5 -15t28.5 -39l7 -18q27 -82 6 -165l-3 -15q-1 -10 -8.5 -29.5t-18.5 -31.5h240q38 0 62 -32q24 -33 13 -71l-104 -365
q-7 -26 -28.5 -43t-48.5 -17zM162 462q-26 0 -46 -22t-20 -50v-340q0 -28 19.5 -47.5t46.5 -19.5h599q22 0 40 14t24 37l105 364q9 33 -12 60q-19 27 -51 27h-263v13q12 0 24.5 24.5t12.5 37.5v1l4 16q20 79 -6 158l-7 18q-7 19 -24 32t-38 13h-3q-27 0 -48 -20.5t-21 -45.5
v-25q0 -105 -68.5 -175t-171.5 -70h-96zM162 462zM268 -26q-10 0 -17.5 7.5t-7.5 17.5v447q0 11 7.5 18t18 7t17.5 -7t7 -18v-447q0 -10 -7 -17.5t-18 -7.5zM268 -26zM268 -7q-6 0 -6 6v447q0 7 6.5 7t6.5 -7v-447q0 -6 -7 -6zM268 -7z" />
    <glyph glyph-name="uniE62B" unicode="&#xe62b;" 
d="M387 446q-10 10 -23 9.5t-23 -10.5t-10.5 -23.5t8.5 -22.5l143 -143q5 -14 16 -20q8 -5 19 -5q16 -1 27 10q6 5 8 13l299 443q8 14 4 29.5t-18 23.5t-29 4t-23 -18l-277 -411zM918 585l-47 -79q22 -62 22 -126q0 -101 -50 -187.5t-136.5 -136.5t-188.5 -50t-188 50
t-136 136.5t-50 188t50 188t136 136.5t188 50q41 0 84 -10l40 67q-61 18 -124 18q-91 0 -174.5 -35.5t-143.5 -96t-95.5 -143.5t-35.5 -174.5t35.5 -175t95.5 -143.5t143.5 -95.5t175 -35.5t174.5 35.5t143.5 95.5t96 143.5t35.5 174.5q0 108 -50 205z" />
    <glyph glyph-name="uniE62C" unicode="&#xe62c;" 
d="M794.5 860q-66.5 0 -113.5 -47t-47 -113.5t47 -114t113.5 -47.5t113.5 47.5t47 114t-47 113.5t-113.5 47zM795 614q-36 0 -61.5 25.5t-25.5 61.5t25.5 61.5t61.5 25.5t61.5 -25.5t25.5 -61.5t-25.5 -61.5t-61.5 -25.5zM791.5 214q-66.5 0 -113.5 -47t-47 -113.5
t47 -113.5t113.5 -47t113.5 47t47 113.5t-47 113.5t-113.5 47zM792 -32q-36 0 -61.5 25.5t-25.5 62t25.5 62t61.5 25.5t61.5 -25.5t25.5 -62t-25.5 -62t-61.5 -25.5zM216.5 540q-66.5 0 -113.5 -47t-47 -113.5t47 -113.5t113.5 -47t113.5 47t47 113.5t-47 113.5t-113.5 47z
M217 294q-36 0 -61.5 25.5t-25.5 61.5t25.5 61.5t61.5 25.5t61.5 -25.5t25.5 -61.5t-25.5 -61.5t-61.5 -25.5zM647 661l-320 -175l36 -66l320 175zM675 111l-332 209l-39 -62l332 -209z" />
    <glyph glyph-name="uniE62D" unicode="&#xe62d;" 
d="M524 60q-130 0 -222.5 92.5t-92.5 222.5t92.5 222.5t222.5 92.5t222.5 -92.5t92.5 -222.5t-92.5 -222.5t-222.5 -92.5zM524 657q-116 0 -199 -83t-83 -199t83 -198.5t199 -82.5t199 82.5t83 198.5t-83 199t-199 83zM717 480l-241 -238h-2l-143 139q-4 6 -4 13q0 8 5.5 14
t13.5 6t13 -5l2 -2l113 -113l214 214q6 6 15 6q8 0 14 -5.5t6 -14t-6 -14.5zM717 480z" />
    <glyph glyph-name="uniE62E" unicode="&#xe62e;" 
d="M512 814q-98 0 -181 -48t-131 -131t-48 -180.5t48 -180.5t131 -131t181 -48t181 48t131 131t48 180.5t-48 180.5t-131 131t-181 48zM512 162q-121 0 -206.5 86t-85.5 207t85.5 206.5t206.5 85.5t206.5 -85.5t85.5 -206.5t-85.5 -207t-206.5 -86zM401 318l64 -64l201 201
l-201 200l-64 -64l137 -136z" />
    <glyph glyph-name="uniE62F" unicode="&#xe62f;" 
d="M152 454.5q0 -97.5 48 -180.5t131 -131t181 -48t181 48t131 131t48 180.5t-48 180.5t-131 131t-181 48t-181 -48t-131 -131t-48 -180.5zM220 455q0 121 85.5 206.5t206.5 85.5t206.5 -85.5t85.5 -206.5t-85.5 -207t-206.5 -86t-206.5 86t-85.5 207zM623 318l-64 -64
l-201 201l201 200l64 -64l-137 -136z" />
    <glyph glyph-name="uniE630" unicode="&#xe630;" 
d="M659 493q-9 9 -18 0l-165 -165l-78 79q-10 9 -19 0l-27 -27q-9 -10 0 -19l87 -88l19 -19l5 -4l4 -4q9 -10 18 0l201 201q10 9 0 18zM527 740q-97 0 -179 -47.5t-129.5 -129.5t-47.5 -179t47.5 -179t129.5 -129.5t179 -47.5t179 47.5t129.5 129.5t47.5 179t-47.5 179
t-129.5 129.5t-179 47.5zM526.5 110q-113.5 0 -193.5 80.5t-80 193.5t80 193.5t193.5 80.5t194 -80.5t80.5 -193.5t-80.5 -193.5t-194 -80.5z" />
    <glyph glyph-name="uniE631" unicode="&#xe631;" 
d="M530 141l402 393l-47 35l-374 -356l-373 341l-46 -37l400 -375l19 -18v0z" />
    <glyph glyph-name="uniE632" unicode="&#xe632;" 
d="M183 447h645v-65h-645v65zM473 737h65v-646h-65v646z" />
    <glyph glyph-name="uniE633" unicode="&#xe633;" 
d="M730 379q0 -104 -73.5 -177.5t-177.5 -73.5t-177.5 73.5t-73.5 177.5q0 100 69 172.5t168 77.5v-76q0 -4 4 -6q1 -1 3 -1t4 1l181 105q3 2 3 6t-3 6l-181 104q-4 2 -7.5 0t-3.5 -6v-77q-122 -6 -207.5 -94.5t-85.5 -211.5q0 -127 90 -217t217 -90t217 90t90 217h-56z
M730 379z" />
    <glyph glyph-name="uniE634" unicode="&#xe634;" 
d="M780 657l-362 -365l-147 147l-70 -76l217 -211l439 435z" />
    <glyph glyph-name="uniE635" unicode="&#xe635;" 
d="M517.5 720q-91.5 0 -169 -45t-122.5 -122.5t-45 -168.5t45 -168.5t122.5 -122.5t169 -45t169 45t122.5 122.5t45 168.5t-45 168.5t-122.5 122.5t-169 45zM705 480l-245 -246q-11 -11 -22 0l-5 5l-6 6l-23 23v0l-106 107q-11 11 0 22l33 34q11 11 23 0l95 -96l201 200
q11 11 22 0l33 -33q12 -11 0 -22z" />
    <glyph glyph-name="uniE636" unicode="&#xe636;" 
d="M666 439l-13 13l-299 306l-27 -36l271 -283l-259 -283l28 -35l286 304z" />
    <glyph glyph-name="uniE637" unicode="&#xe637;" 
d="M528.5 806q-99.5 0 -184 -49t-134 -133.5t-49.5 -184.5t49.5 -184.5t134 -133.5t184 -49t184 49t134 133.5t49.5 184.5t-49.5 184.5t-134 133.5t-184 49zM528.5 112q-88.5 0 -164 44t-119.5 119t-44 164t44 164.5t119.5 119t164 43.5t164 -43.5t119.5 -119t44 -164.5
t-44 -164t-119.5 -119t-164 -44zM528.5 346q33.5 0 57 23.5t23.5 56.5v173q0 34 -23.5 57.5t-57 23.5t-57 -23.5t-23.5 -57.5v-173q0 -33 23.5 -56.5t57 -23.5zM635 426h1q0 -44 -31 -75t-74 -32h-5q-43 1 -73.5 32t-30.5 75v80h-27v-80q0 -52 34.5 -90t85.5 -43v-68h-80
v-26h187v26h-80v68q51 5 85.5 43t34.5 90v80h-27v-80z" />
    <glyph glyph-name="uniE638" unicode="&#xe638;" 
d="M777 619q-98 97 -236.5 97t-236.5 -97t-98 -235t98 -235t236.5 -97t236.5 97q64 64 86.5 149.5t0 171t-86.5 149.5zM746 180q-85 -85 -205.5 -85t-205.5 84.5t-85 204.5t85 204.5t205.5 84.5t205.5 -84.5t85 -204.5t-85 -204zM560 521h-39v-117h-118v-40h118v-117h39v117
h118v40h-118v117z" />
    <glyph glyph-name="uniE639" unicode="&#xe639;" 
d="M531.5 781q-94.5 0 -174.5 -46.5t-126.5 -126.5t-46.5 -174t46.5 -174t126.5 -126.5t174.5 -46.5t174.5 46.5t126.5 126.5t46.5 174t-46.5 174t-126.5 126.5t-174.5 46.5zM531.5 123q-128.5 0 -219.5 91t-91 220t91 220t219.5 91t219.5 -91t91 -220t-91 -220t-219.5 -91z
M714 377l-175 177l-8 8v0l-9 -9l-173 -169l20 -16l162 153l163 -160z" />
    <glyph glyph-name="uniE63A" unicode="&#xe63a;" 
d="M527 60q-6 -7 -16 -7t-16 7q-14 17 -35 42t-69 89t-84.5 121t-66 122.5t-29.5 109.5q0 120 88 205t212 85t212 -85t88 -205q0 -44 -29.5 -109.5t-66 -122.5t-84.5 -121t-69 -89t-35 -42zM511 793q-107 0 -182.5 -73t-75.5 -176q0 -42 30.5 -106.5t78.5 -134t82 -114
t67 -84.5q33 40 67 84.5t82 114t78.5 134t30.5 106.5q0 103 -76 176t-182 73zM515 446q-52 0 -88.5 35.5t-36.5 85t36.5 85t88 35.5t88 -35.5t36.5 -85t-36.5 -85t-87.5 -35.5zM515 646q-34 0 -58 -23.5t-24 -56t24 -56t58 -23.5t58 23.5t24 56t-24 56t-58 23.5zM372 155
q9 1 16 -3.5t8.5 -12.5t-3 -15t-13.5 -9q-59 -11 -93 -29.5t-34 -34.5q0 -12 18.5 -25t51 -24.5t82.5 -19t106 -7.5t106 7.5t82 19t51 24.5t19 25q0 16 -33.5 34t-91.5 29q-8 2 -13 9t-3.5 15.5t9 13t16.5 2.5q75 -14 116.5 -41.5t41.5 -61.5q0 -37 -44.5 -64t-111.5 -40
t-144 -13t-144 13t-111.5 40t-44.5 64q0 35 42 62t119 42zM372 155z" />
    <glyph glyph-name="uniE63B" unicode="&#xe63b;" 
d="M706 619q-25 -299 -25 -310q0 -110 63 -110q58 0 96.5 63.5t38.5 166.5q0 149 -95 244t-263 95q-163 0 -270 -114t-107 -286q0 -168 100.5 -270.5t273.5 -102.5q134 0 233 45v-73q-96 -41 -240 -41q-202 0 -325.5 121.5t-123.5 317.5q0 202 129.5 336t332.5 134
q190 0 313.5 -111.5t123.5 -290.5q0 -133 -66.5 -217.5t-161.5 -84.5q-121 0 -122 129h-3q-41 -129 -157 -129q-75 0 -122 55.5t-47 151.5q0 125 64.5 207.5t166.5 82.5q40 0 71 -20.5t39 -50.5h2q1 2 6 62h75zM366 337q0 -62 26 -99.5t75 -37.5q67 0 106 67t39 177
q0 116 -98 116q-66 0 -107 -64.5t-41 -158.5z" />
    <glyph glyph-name="uniE63C" unicode="&#xe63c;" 
d="M480 328q109 0 186 77.5t77 186.5t-77 186t-186 77t-186.5 -77t-77.5 -186q0 -77 40.5 -140.5t107.5 -96.5q-94 -28 -164 -98q-56 -56 -86 -128t-30 -151q0 -9 6.5 -15.5t16 -6.5t15.5 6.5t6 15.5q0 145 103 248q99 99 239 103q5 -1 10 -1zM260 592q0 90 64.5 154.5
t155.5 64.5t155 -64.5t64 -154.5t-63 -154t-153 -66q-2 1 -3 1h-10q-88 4 -149 67.5t-61 151.5zM941 28l-204 228q-4 5 -10.5 5t-10.5 -5q-11 -12 0 -23l178 -200h-503q-6 0 -10.5 -5t-4.5 -12t4.5 -11.5t10.5 -4.5h540q10 0 13.5 10t-3.5 18z" />
    <glyph glyph-name="uniE63D" unicode="&#xe63d;" 
d="M510.5 834q-92.5 0 -176.5 -36t-145 -96t-97 -143.5t-36 -175t36 -174.5t97 -143.5t145 -96t176.5 -35.5t177 35.5t145 96t96.5 143.5t36 174.5t-36 175t-96.5 143.5t-145 96t-177 36zM765 512l-332 -328q-7 -7 -15.5 -7t-14.5 7l-7 6l-8 8l-31 30v1l-144 143q-6 6 -6 15
t6 15l46 45q6 6 14.5 6t15.5 -6l129 -129l271 268q6 6 15 6t15 -6l46 -44q6 -7 6 -15.5t-6 -14.5z" />
    <glyph glyph-name="uniE63E" unicode="&#xe63e;" 
d="M684 517q-12 12 -24 0l-210 -208l-100 100q-12 11 -23 0l-35 -35q-5 -5 -5 -11.5t5 -11.5l111 -111l24 -24l6 -6l5 -5q12 -11 24 0l257 254q5 5 5 12t-5 12zM515.5 829q-92.5 0 -177 -35.5t-145.5 -95.5t-97 -143.5t-36 -175t36 -174.5t97 -143.5t145.5 -96t177 -35.5
t176.5 35.5t145 96t97 143.5t36 174.5t-36 175t-97 143.5t-145 95.5t-176.5 35.5zM515 34q-95 0 -175.5 46.5t-127.5 126t-47 173.5t47 173.5t127.5 126t175.5 46.5t175.5 -46.5t127.5 -126t47 -173.5t-47 -173.5t-127.5 -126t-175.5 -46.5z" />
    <glyph glyph-name="uniE63F" unicode="&#xe63f;" 
d="M512 773q-116 0 -198.5 -78.5t-82.5 -189.5q0 -51 21 -111.5t54.5 -114t65.5 -95.5t62 -73q22 -22 64 -71q5 -7 14 -7q8 0 14 6q29 34 68 73q31 31 63 71.5t64 93t52 113t20 115.5q0 111 -82.5 189.5t-198.5 78.5zM568 135q-23 -23 -56 -58q-28 33 -51 57
q-71 74 -132.5 180t-61.5 191q0 97 72 165.5t173 68.5t173 -68.5t72 -165.5q0 -51 -19 -107.5t-49.5 -106t-60.5 -88t-60 -68.5zM512 636q-57 0 -97 -38t-40 -92t40 -92.5t97 -38.5t97 38.5t40 92.5t-40 92t-97 38zM512 409q-42 0 -71.5 28.5t-29.5 68.5t29.5 68t71.5 28
t71.5 -28t29.5 -68t-29.5 -68.5t-71.5 -28.5z" />
    <glyph glyph-name="uniE640" unicode="&#xe640;" 
d="M505 58q-98 0 -181 48t-131.5 131t-48.5 181t48.5 181t131.5 131t180.5 48t180.5 -48t131.5 -131t48.5 -181t-48.5 -181t-131.5 -131t-180 -48zM505 733q-131 0 -223 -92.5t-92 -222.5t92 -222.5t222.5 -92.5t222.5 92.5t92 222.5t-92 222.5t-222 92.5zM505 733zM510 624
q-59 0 -101.5 -42.5t-42.5 -102.5q0 -32 32 -97t54.5 -100t40.5 -62l17 -25l18 25q18 27 40.5 62t54.5 100t32 97q0 60 -42.5 102.5t-102.5 42.5zM510 413q-29 0 -50 21t-21 50t21 50t50.5 21t50 -21t20.5 -50t-20.5 -50t-50.5 -21zM510 413z" />
    <glyph glyph-name="uniE641" unicode="&#xe641;" 
d="M693 595q3 0 7.5 -0.5t16.5 -4t21 -10t16.5 -20.5t7.5 -33q-1 0 0 -6.5t-3 -16.5t-9.5 -19.5t-20.5 -17t-36 -7.5h-7q-5 0 -16.5 3.5t-20 10t-16 20.5t-6.5 33v7q0 4 3.5 15t10 19.5t20 16.5t32.5 10zM828 698q5 0 11 -1.5t16 -10t10 -23.5v-475q-1 -4 -2 -9.5t-10 -15.5
t-25 -10v545v0zM184 188q0 -4 1 -10t10 -15.5t23 -9.5h610v101h-66l-135 137l-103 -103l-138 172l-137 -205l-31 -1v409h-34v-475zM828 698h-610h-4q-2 0 -8 -2t-10.5 -5t-8 -10.5t-3.5 -17.5h644v35zM828 698z" />
    <glyph glyph-name="uniE642" unicode="&#xe642;" 
d="M786 382q-14 35 -35 63q18 14 18 46q0 20 -9.5 35t-22.5 16q3 16 3 32q0 98 -69.5 166.5t-167.5 68.5t-167.5 -68.5t-69.5 -166.5q0 -18 3 -36q-20 -13 -20 -47q0 -19 7 -33q-24 -26 -42 -62q-16 -31 -21.5 -64t-1 -54.5t14.5 -26.5q8 -4 27 8.5t39 36.5q6 -58 50 -103
q-35 -10 -55.5 -29t-17.5 -39q4 -26 42.5 -40.5t89.5 -9.5q36 4 64.5 17.5t41.5 31.5h12h22q28 -38 101 -47q49 -6 86 8t40 40q3 20 -17 39t-54 30q41 43 49 97q18 -25 35 -39.5t27 -11.5q8 1 12.5 22t1.5 55t-16 65z" />
    <glyph glyph-name="uniE643" unicode="&#xe643;" 
d="M373 289q7 9 64 43.5t111 65.5l53 30l-277 37l371 5q13 -11 0 -27q-6 -7 -58.5 -44.5t-102 -72t-49.5 -33.5l224 -18l-7 39l179 175l-248 36l-111 225l-111 -225l-248 -36l179 -175l-42 -247l222 117l222 -117l-35 203l-336 -15v34z" />
    <glyph glyph-name="uniE644" unicode="&#xe644;" 
d="M398 780l234 -288l6 273q-68 29 -141 29q-51 0 -99 -14zM185 610l369 -38l-189 197q-68 -27 -120 -79q-36 -35 -60 -80zM154 339l288 235l-272 6q-30 -68 -30 -142q0 -50 14 -99zM324 126l38 369l-197 -188q27 -69 80 -121q35 -35 79 -60zM595 96l-234 288l-6 -273
q68 -29 142 -29q50 0 98 14zM808 266l-369 38l188 -197q69 27 121 79q36 36 60 80zM839 537l-288 -234l272 -7q30 68 30 142q0 50 -14 99zM669 750l-38 -369l197 188q-27 69 -80 121q-35 36 -79 60z" />
    <glyph glyph-name="uniE645" unicode="&#xe645;" 
d="M669 500h11q-15 79 -88.5 132.5t-171.5 53.5q-109 0 -185.5 -64.5t-76.5 -155.5q0 -52 27.5 -98t75.5 -76l2 -2l-25 -79l95 48q3 -1 4 -1q40 -12 83 -12q8 0 18 1q-9 26 -9 52q0 83 70.5 142t169.5 59zM511.5 577q15.5 0 26 -10t10.5 -25t-10.5 -25.5t-26 -10.5t-26 10.5
t-10.5 25.5t10.5 25t26 10zM328.5 506q-15.5 0 -26 10.5t-10.5 25.5t10.5 25t26 10t26.5 -10t11 -25t-11 -25.5t-26.5 -10.5zM449 298q0 -77 65 -131t157 -54q36 0 70 9l4 1l80 -41l-22 67q2 1 2 2q41 26 64 64.5t23 82.5q0 77 -64.5 131.5t-156.5 54.5t-157 -54.5
t-65 -131.5zM717 362.5q0 12.5 9 21t22 8.5t22 -8.5t9 -21t-9 -21.5t-22 -9t-22 9t-9 21.5zM562 362q0 13 9.5 21.5t22 8.5t22 -8.5t9.5 -21t-9.5 -21.5t-22 -9t-22 9t-9.5 21z" />
    <glyph glyph-name="uniE646" unicode="&#xe646;" 
d="M665 410q-12 2 -15.5 6.5t-0.5 8.5l2 4q3 4 6.5 12t3 27.5t-14.5 32.5q-10 11 -27.5 14t-34.5 0.5t-32.5 -6.5t-24.5 -9l-10 -4q-23 -7 -25 2t4 30q0 11 -1.5 21t-8 20.5t-17 16.5t-30.5 5.5t-47 -9.5q-26 -9 -53.5 -27t-48 -37.5t-37 -37.5t-25.5 -30l-9 -12
q-25 -33 -37 -65.5t-11 -49.5v-16q5 -45 30 -78.5t63.5 -51.5t77 -27t82.5 -13q89 -7 180.5 29.5t123.5 104.5q12 27 12.5 50.5t-8 38.5t-22 26t-25 16.5t-20.5 7.5zM432 173q-82 -4 -139.5 32t-57.5 90q0 55 57 94t140 43q84 4 141 -27.5t57 -85.5q0 -55 -58.5 -98.5
t-139.5 -47.5zM410 384q-97 -11 -97 -116v-4q0 -2 1.5 -8.5t4.5 -12t9 -12.5t15 -12q49 -24 93 -14.5t71 43.5q12 17 13.5 41.5t-8 47.5t-36.5 37t-66 10zM382.5 239.5q-15.5 -1.5 -26 6t-10.5 20.5t10 24.5t25 12.5q17 2 28 -6.5t11 -21.5t-11 -23.5t-26.5 -12zM447 295
q-12 -10 -19 1q-7 13 5 21q13 10 20 -1q7 -12 -6 -21zM824 467q1 4 1 7q2 16 2 29q0 82 -57.5 139.5t-139.5 57.5q-11 0 -19 -8t-8 -19.5t8 -19.5t19 -8q59 0 101 -41.5t42 -100.5q0 -13 -3 -26h1l-1 -3q0 -11 8 -19t19 -8q10 0 17 5.5t10 14.5v0zM739 493v10q0 45 -32 77
t-77 32q-9 0 -15.5 -6.5t-6.5 -16t6.5 -16t15.5 -6.5q27 0 45.5 -19t18.5 -45q0 -4 -1 -8h1v-1q-1 -1 -1 -2q0 -9 7 -15.5t16 -6.5t15 5.5t7 13.5v1q0 1 0.5 1t0.5 1v0v1z" />
    <glyph glyph-name="uniE647" unicode="&#xe647;" 
d="M768 411q2 -4 -0.5 -9t-7.5 -7l-1 -1q-12 -4 -17 9l-38 113q-2 5 0.5 9.5t7.5 6.5v1q6 1 11 -1.5t6 -7.5zM530 305q-5 0 -9 4t-4 9v1q0 5 4 9t9 4h268q5 0 9 -4t4 -9v-1q0 -5 -4 -9t-9 -4h-268zM565 513h35l22 38q7 12 18 4h1q11 -7 4 -18l-75 -134h72q6 0 10 -4t4 -9v-1
q0 -5 -4 -9t-10 -4h-98q-8 0 -12 6.5t0 13.5l52 90h-43q-7 0 -11 6.5t-1 13.5l75 141q5 12 17 5h1q12 -6 5 -18zM830 332q10 0 17 7t7 17v212q0 9 -7 16t-17 7h-136q-8 0 -11.5 6t-0.5 13l18 40q6 12 18 6q4 -1 7 -7q2 -5 -1 -10l-10 -21h116q11 0 20 -4q19 -8 27 -27
q4 -9 4 -19v-212q0 -10 -4 -20q-8 -19 -27 -27q-8 -4 -20 -4h-39q-5 0 -9 4t-4 9v1q0 5 4 9t9 4h39zM340 649q15 0 25 -10q10 -11 10 -26v-57q0 -15 -10 -25q-11 -10 -25 -10h-23q3 -4 3 -9v-9h49q6 0 10 -4t4 -9q0 -6 -4 -10t-10 -4h-78q0 -7 -1 -22h48q8 0 16 -3
q27 -13 27 -40v-23q0 -18 -13 -31q-13 -12 -30 -12h-9q-5 0 -9 3.5t-4 9.5t4 10t9 4h9q7 0 11 4q5 5 5 12v23q0 6 -5 11q-4 5 -11 5h-49h-1q-1 -5 -2 -12q-3 -12 -10 -34l-13 -26q-2 -5 -7.5 -6t-10.5 1l-1 1q-11 6 -4 17q5 12 10 23q6 16 9 31q3 12 4 27q0 5 0.5 14t0.5 13
h-12q-6 0 -9.5 4t-3.5 10q0 5 4 9t9 4h41v9q0 5 3 9h-15q-14 0 -25 10q-11 11 -11 25v57q0 15 11 26q10 10 25 10h12v8q0 5 4 9t9 4h1q5 0 9 -4t4 -9v-8h20zM428 624h83q6 0 10 -4t4 -10t-4 -10t-10 -4h-3v-1q-4 -32 -12 -64q-10 -42 -23 -74l70 -130q6 -12 -6 -19h-1
q-12 -6 -18 6l-60 112q-7 -12 -15 -24q-14 -23 -33 -45q-4 -3 -10 -4q-6 0 -9 4l-1 1q-10 9 -1 18q32 36 53 80l-43 81q-7 11 6 18q13 6 18 -5l33 -61q9 25 14 49q8 35 11 58h-73q-6 0 -10 6q-4 4 -3 11l14 45q4 13 17 9q5 -1 8 -6t1 -10zM241 306q-10 0 -20 4q-18 8 -26 26
q-4 10 -4 20v200q0 5 4 9t9 4q6 0 10 -4t4 -9v-200q0 -9 7 -16t16 -7h235q6 0 10 -4t4 -9v-1q0 -5 -4 -9t-10 -4h-235zM281 548h59q8 0 8 8v15h-75v-15q0 -8 8 -8zM281 622q-8 0 -8 -9v-15h75v15q0 9 -8 9h-59zM218 608q0 -5 -4 -9t-10 -4q-5 0 -9 4t-4 9v43q0 6 4 9.5
t9 3.5q6 0 10 -3.5t4 -9.5v-43zM214 234v-58q0 -3 -2 -5t-6 -2t-6 2.5t-2 4.5v58q0 3 2.5 5t5.5 2t5.5 -2t2.5 -5zM248 221v-45q0 -3 -1.5 -5t-4.5 -2.5t-5.5 2t-2.5 5.5v53q0 4 1.5 6.5t3.5 4t5 2.5q4 0 6.5 -1.5t4.5 -3.5l25 -37l1 -1l1 -1v3v34q0 3 2 4.5t5 2t5.5 -1.5
t2.5 -5v-56q0 -4 -1.5 -6.5t-4.5 -3.5t-5.5 1t-3.5 3l-32 49l-1 1h-1v-2zM350 189l14 47q1 3 3 4.5t5 1.5t5 -2t2 -4.5t-1 -5.5l-16 -49q-2 -4 -3.5 -6.5t-3.5 -4t-7 -1.5q-2 0 -4.5 1t-4 3.5t-3.5 6.5l-20 50q-1 2 -1 4.5t1 4t2.5 2.5t3.5 1t4 -1.5t3 -3.5l18 -47v-2
q1 -2 1.5 -2t1 1t0.5 2zM414 234v-58q0 -2 -2 -4.5t-6 -2.5t-5.5 2.5t-1.5 4.5v58q0 3 2 5t5 2t5.5 -2t2.5 -5zM473 229v-53q0 -2 -1.5 -4t-5 -2t-6 1.5t-2.5 4.5v53h-19q-2 0 -4 1.5t-2 5t2 5t4 1.5h52q3 0 5 -2t2 -4.5t-2 -4.5t-5 -2h-18zM535 184l-5 -10q-1 -3 -2 -4.5
t-4.5 -1t-5 2.5t-1.5 3v4l18 48q2 3 3 7q2 3 4.5 5t7.5 3q5 0 8 -2t4.5 -5.5t3.5 -8.5l16 -47q1 -2 1 -4t-2 -4t-5 -2t-4.5 1.5t-2.5 3.5l-3 11h-31zM561 198l-9 28q0 1 -0.5 1.5t-1 0.5t-0.5 -1l-1 -1l-10 -28h22zM641 229v-53q0 -2 -1.5 -4t-5 -2t-5.5 1.5t-2 4.5v53h-19
q-2 0 -4 1.5t-2 5t2 5t4 1.5h52q3 0 4.5 -2t2 -4.5t-1.5 -4.5t-5 -2h-19zM701 234v-58q0 -2 -2 -4.5t-5 -2.5q-4 0 -6 2.5t-2 4.5v58q0 3 2.5 5t5.5 2t5 -2t2 -5zM757 169q-8 -1 -13.5 1t-10 6.5t-7 9t-3.5 9t-1 10.5q0 7 1.5 12t4 9t7 7.5t9.5 6t12 2.5t12.5 -2t10 -5.5
t8 -9t4.5 -10.5t1 -10q0 -8 -2 -14t-5 -9.5t-7 -6.5t-9 -4.5t-12 -1.5zM756 181q4 0 8.5 1.5t8 5t4.5 8.5t1 10q0 6 -1.5 10t-4.5 7t-6.5 4.5t-8.5 2.5q-4 0 -7.5 -1t-6.5 -3.5t-5 -6t-2.5 -7t-0.5 -6.5q0 -5 1 -9t3.5 -7.5t7 -5.5t9.5 -3zM825 221v-45q0 -3 -1.5 -5
t-4.5 -2.5t-5.5 2t-2.5 5.5v53q0 4 1 6.5t3 4t6 2.5q3 0 6 -1.5t5 -3.5l24 -37q1 0 2 -1l1 -1v1v2v34q0 3 2 4.5t5 2t5.5 -1.5t2.5 -5v-56q0 -4 -1.5 -6.5t-5 -3.5t-5.5 1l-3 3l-33 49v1h-1v-2z" />
    <glyph glyph-name="uniE648" unicode="&#xe648;" 
d="M866 259q0 -21 -13.5 -34.5t-36.5 -12.5q-7 0 -15.5 -0.5t-13.5 0.5q-6 0 -10.5 1.5t-7 3.5t-5 7t-3.5 8.5t-2.5 12t-3.5 14.5q-13 51 -59 114t-66 74q-15 9 -18 13.5t1 10.5t11 13t13.5 26.5t6.5 45.5q0 45 -16 79q-8 12 -6.5 22t22.5 9q46 -2 78.5 -33.5t32.5 -76.5
q0 -58 -49 -91q11 -2 18 -4q60 -18 101 -78.5t41 -123.5v0v0zM704 205q-1 -50 -54 -50h-139h-167h-106q-19 0 -30.5 4t-16 12.5t-6 15t-1.5 18.5q0 86 52.5 156.5t133.5 93.5q-35 18 -53 51t-18 74q0 59 42.5 101t102.5 42t102 -42t42 -101q0 -40 -19 -73t-53 -52
q80 -23 134.5 -94t53.5 -156v0v0zM704 205z" />
    <glyph glyph-name="uniE649" unicode="&#xe649;" 
d="M376 39q-23 0 -39.5 16.5t-16.5 39.5v421q0 23 16.5 39.5t39.5 16.5h470q24 0 40 -16.5t16 -39.5v-421q0 -23 -16 -39.5t-40 -16.5h-470zM376 535q-7 0 -13 -5.5t-6 -13.5v-421q0 -8 6 -13.5t13 -5.5h470q14 0 18 13h1v6v421q0 8 -5.5 13.5t-13.5 5.5h-470zM240 176
q-8 0 -13.5 5.5t-5.5 12.5v421q0 23 16.5 39.5t40.5 16.5h420q7 0 12.5 -5.5t5.5 -13.5q0 -7 -5.5 -12.5t-12.5 -5.5h-421q-8 0 -13.5 -5.5t-5.5 -13.5v-420q0 -9 -5 -14t-13 -5zM140 274q-7 0 -12.5 5.5t-5.5 13.5v420q0 24 16.5 40t39.5 16h420q8 0 13 -5t5 -13t-5 -13
t-13 -5h-420q-8 0 -13.5 -5.5t-5.5 -13.5v-421q0 -7 -5.5 -13t-13.5 -6zM140 274z" />
    <glyph glyph-name="uniE64A" unicode="&#xe64a;" 
d="M862 647l-349 -490l-351 490h700z" />
    <glyph glyph-name="uniE64B" unicode="&#xe64b;" 
d="M912 273l-362 354l-16 15v0l-19 -18l-357 -336l41 -33l335 306l336 -320z" />
    <glyph glyph-name="uniE64C" unicode="&#xe64c;" 
d="M496 130q-165 0 -290 79q-59 37 -91.5 82.5t-32.5 92.5t32.5 92.5t91.5 82.5q125 79 290.5 79t290.5 -79q59 -37 91.5 -82.5t32.5 -92.5t-32.5 -92.5t-91.5 -82.5q-125 -79 -291 -79zM496 610q-157 0 -275 -74q-52 -33 -81.5 -73t-29.5 -79t29.5 -79t81.5 -73
q118 -74 275.5 -74t275.5 74q52 33 81.5 73t29.5 79t-29.5 79t-81.5 73q-118 74 -276 74zM496 610zM496 246q-57 0 -97 40.5t-40 97.5t40 97.5t97 40.5t97.5 -40.5t40.5 -97.5t-40.5 -97.5t-97.5 -40.5zM496 493q-45 0 -77 -32t-32 -77t32 -77t77 -32t77 32t32 77t-32 77
t-77 32zM496 493zM426 366q-6 0 -10.5 4t-4.5 10q-1 39 29 65q11 9 20.5 -2t-1.5 -20q-20 -17 -19 -42q0 -6 -4 -10.5t-10 -4.5v0zM426 366z" />
    <glyph glyph-name="uniE64D" unicode="&#xe64d;" 
d="M312 222q7 -7 16.5 -7t16.5 7l137 137l137 -137q7 -7 16.5 -7t16.5 7.5t7 16.5t-7 16l-137 137l137 137q7 7 7 16.5t-7 16.5t-16.5 7t-16.5 -7l-137 -137l-137 137q-7 7 -16.5 7t-16.5 -7t-7 -16.5t7 -16.5l137 -137l-137 -137q-7 -7 -7 -16t7 -17v0zM482 15
q76 0 145 28.5t122 82.5q53 53 82 122t29 144q0 76 -28.5 145t-82.5 122q-53 54 -122 82.5t-144.5 28.5t-145 -28.5t-121.5 -82.5q-54 -53 -82.5 -122t-28.5 -144.5t28.5 -144.5t82.5 -122q52 -54 121.5 -82.5t144.5 -28.5v0zM249 626q96 97 233 97t234 -97t97 -234
t-97 -233.5t-234 -96.5t-233.5 96.5t-96.5 233.5t97 234v0zM249 626z" />
    <glyph glyph-name="uniE64E" unicode="&#xe64e;" 
d="M870 284h-273v-273h-127v273h-272v127h272v272h127v-272h273v-127z" />
    <glyph glyph-name="uniE64F" unicode="&#xe64f;" 
d="M531 795q-97 0 -179.5 -48t-130.5 -130.5t-48 -180t48 -180t130.5 -130.5t179.5 -48t179.5 48t130.5 130.5t48 180t-48 180t-130.5 130.5t-179.5 48zM531 107q-90 0 -165.5 44t-120 120t-44.5 165.5t44.5 165.5t120 120t165.5 44t166 -44t120 -120t44 -165.5t-44 -165.5
t-120 -120t-166 -44zM531 107zM671 316l-20 -20l-69 70l19 19q8 8 16 0l54 -54q8 -8 0 -15zM463 363q-28 28 -45.5 55.5t-23.5 46.5t-6 35.5t3 25t7 13.5l71 -72q-11 -11 11 -38t50 -50q20 -16 28.5 -20t17.5 1l70 -69q-4 -5 -13 -8t-26.5 -2.5t-37.5 7t-48 25.5t-58 50z
M494 492l-20 -19l-71 71l20 20q8 7 15 0l56 -56q8 -8 0 -16v0zM494 492z" />
    <glyph glyph-name="uniE650" unicode="&#xe650;" 
d="M811 472q0 80 -45.5 148t-123.5 107.5t-170 39.5t-170 -39.5t-123.5 -107.5t-45.5 -148q0 -73 39 -137.5t108 -105.5v-95q0 -9 8 -14q4 -2 8 -2t8 3l44 28l2 2l49 33q37 -7 73 -7q92 0 170 39.5t123.5 107.5t45.5 148zM472 208q-36 0 -73 8q-6 2 -12 -2l-57 -38l-2 -2
l-17 -11v75q0 9 -8 14q-65 37 -102 95t-37 125q0 109 90.5 186.5t217.5 77.5t217.5 -77.5t90.5 -186.5t-90.5 -186.5t-217.5 -77.5zM472 208zM826 396q34 -46 34 -100q0 -47 -26.5 -89t-73.5 -68q-8 -5 -8 -14v-47l-5 4q-1 0 -2 1l-42 28q-5 4 -12 2q-56 -11 -106.5 0
t-91.5 41l-19 -25q45 -33 101.5 -46t115.5 -2l35 -23q1 -1 2 -1l31 -21q4 -3 9 -3q4 0 7 2q9 4 9 14v67q50 31 78.5 78.5t28.5 101.5q0 65 -40 119zM826 396z" />
    <glyph glyph-name="uniE651" unicode="&#xe651;" 
d="M809 117h-594q-19 0 -31.5 14t-12.5 33v366q0 20 12.5 33.5t31.5 13.5h135q17 13 35 45q9 14 17.5 21.5t13.5 7.5h4h158q6 -1 14.5 -1.5t25.5 -8t23 -20.5q14 -30 33 -44h135q19 0 31.5 -13.5t12.5 -33.5v-366q0 -19 -12.5 -33t-31.5 -14zM512 514q-64 0 -109.5 -45.5
t-45.5 -110.5t45.5 -111t109.5 -46t109.5 46t45.5 111t-45.5 110.5t-109.5 45.5zM734 536q-10 0 -18 -8t-8 -18.5t8 -18.5t18.5 -8t18 8t7.5 18.5t-7.5 18.5t-18.5 8zM512 232q-51 0 -87.5 37t-36.5 89t36.5 88.5t87.5 36.5t87.5 -36.5t36.5 -88.5t-36.5 -89t-87.5 -37z
M235 640h74v-32h-74v32zM235 640z" />
    <glyph glyph-name="uniE652" unicode="&#xe652;" 
d="M480 825l-38 -70l-97 -180l-198 -38l-76 -15l53 -57l138 -150l-25 -203l-10 -79l71 34l182 87l182 -87l72 -34l-10 79l-25 203l138 150l52 57l-76 15l-197 38l-98 180l-38 70v0zM480 825z" />
    <glyph glyph-name="uniE653" unicode="&#xe653;" 
d="M512 664q-124 0 -212 -88t-88 -212.5t88 -212.5t212 -88t212 88t88 212.5t-88 212.5t-212 88zM512 86q-115 0 -196 81t-81 196t81 196.5t196 81.5t196 -81.5t81 -196.5t-81 -196t-196 -81zM512 641q-115 0 -196 -81.5t-81 -196.5t81 -196t196 -81t196 81t81 196
t-81 196.5t-196 81.5zM684 511q-34 -2 -46 -38l-113 -268h-14l-127 273q-14 31 -44 33v10h169v-10q-49 0 -43 -20q0 -13 16 -40l64 -145l65 151q0 2 2 7q8 18 8 25q2 20 -43 22v10h106v-10z" />
    <glyph glyph-name="uniE654" unicode="&#xe654;" 
d="M849 626h-611q-8 0 -14 6t-6 14t6 14t14 6h611q8 0 14 -6t6 -14t-6 -14t-14 -6v0zM652 705h-217q-8 0 -14 6t-6 14t6 14t14 6h217q8 0 14 -6t6 -14t-6 -14t-14 -6v0zM455 192v336q0 8 5.5 13.5t14 5.5t14 -5.5t5.5 -13.5v-336q0 -8 -5.5 -13.5t-14 -5.5t-14 5.5
t-5.5 13.5v0zM593 192v336q0 8 5.5 13.5t14 5.5t14 -5.5t5.5 -13.5v-336q0 -8 -5.5 -13.5t-14 -5.5t-14 5.5t-5.5 13.5v0zM317 567q8 0 13.5 -6t5.5 -14v-23v-75v-316q0 -16 11.5 -27.5t28.5 -11.5h335q16 0 28 11.5t12 27.5v316v75v23q0 8 5.5 14t13.5 6t14 -6t6 -14v-79
v-19v-336q0 -24 -17.5 -41.5t-41.5 -17.5h-375q-24 0 -41.5 17.5t-17.5 41.5v299v37v19v79q0 8 5.5 14t14.5 6v0zM317 567z" />
    <glyph glyph-name="uniE655" unicode="&#xe655;" 
d="M404 247h-27q-7 0 -12 5t-5 12t5 12t12 5h27q7 0 12 -5t5 -12t-5 -12t-12 -5zM404 491h-27q-7 0 -12 4.5t-5 12t5 12t12 4.5h27q7 0 12 -4.5t5 -11.5t-5 -12t-12 -5zM404 369h-27q-7 0 -12 5t-5 12t5 12t12 5h27q7 0 12 -5t5 -12t-5 -12t-12 -5zM512 64q-91 0 -168 45
t-122 122t-45 168t45 168.5t122 122t168 44.5q73 0 139 -30q7 -6 7 -12.5t-6 -10.5t-13 -1q-60 27 -127 27q-128 0 -218 -90t-90 -217.5t90 -218t218 -90.5t218 90.5t90 217.5q0 35 -7 68q-4 18 10 20q13 0 16 -14q8 -36 8 -74q0 -91 -45 -168t-122 -122t-168 -45zM485 281
h217q7 0 12 -5t5 -12t-5 -12t-12 -5h-217q-7 0 -12 5t-5 12t5 12t12 5zM485 491q-7 0 -12 4.5t-5 12t5 12t12 4.5h61q7 0 12 -4.5t5 -11.5t-5 -12t-12 -5h-61zM562 378l-2 -2q-5 -7 -14 -7h-61q-7 0 -12 5t-5 12t5 12t12 5h54l234 227q5 5 12 5t12 -5t5 -12t-5 -12zM562 378
z" />
    <glyph glyph-name="uniE656" unicode="&#xe656;" 
d="M860 87l-200 200q66 80 66 182q0 117 -84 201t-201.5 84t-201 -84t-83.5 -201.5t83.5 -201t201.5 -83.5q102 0 181 66l201 -201q7 -8 18.5 -8t19 8t7.5 19t-8 19zM209 469q0 96 68 163.5t164 67.5t163.5 -67.5t67.5 -163.5t-67.5 -164t-163.5 -68t-164 68t-68 164z
M209 469z" />
    <glyph glyph-name="uniE657" unicode="&#xe657;" 
d="M812 749h-551q-37 0 -63 -26t-26 -63v-552q0 -37 26 -63t63 -26h551q37 0 63.5 26t26.5 63v552q0 37 -26.5 63t-63.5 26zM872 108q0 -24 -17.5 -41.5t-42.5 -17.5h-551q-25 0 -42.5 17.5t-17.5 41.5v552q0 24 17.5 41.5t42.5 17.5h551q25 0 42.5 -17.5t17.5 -41.5v-552z
M872 108zM682 406h-123v123q0 10 -6.5 16.5t-16 6.5t-16 -6.5t-6.5 -16.5v-123h-123q-9 0 -15.5 -6.5t-6.5 -15.5t6.5 -15.5t15.5 -6.5h123v-123q0 -10 6.5 -16.5t16 -6.5t16 6.5t6.5 16.5v123h123q9 0 15.5 6.5t6.5 15.5t-6.5 15.5t-15.5 6.5zM682 406z" />
    <glyph glyph-name="uniE658" unicode="&#xe658;" 
d="M859 124h-87v-87h-35v87h-86v35h86v86h35v-86h87v-35zM703 280q-86 69 -191 69q-129 0 -220.5 -91t-91.5 -221h-35q0 119 72.5 212t184.5 123q-46 24 -73.5 69t-27.5 99q0 79 56 135t135 56t135 -56t56 -135q0 -54 -27.5 -99t-73.5 -69q85 -23 153 -92h-52zM668 540
q0 65 -45.5 110.5t-110.5 45.5t-110.5 -45.5t-45.5 -110.5t45.5 -110.5t110.5 -45.5t110.5 45.5t45.5 110.5zM668 540z" />
    <glyph glyph-name="uniE659" unicode="&#xe659;" 
d="M196 526h87q6 0 10.5 4.5t4.5 11t-4.5 10.5t-10.5 4h-87q-6 0 -10.5 -4t-4.5 -10.5t4.5 -11t10.5 -4.5zM196 526zM283 416h-87q-6 0 -10.5 -4.5t-4.5 -10.5t4.5 -10.5t10.5 -4.5h87q6 0 10.5 4.5t4.5 10.5t-4.5 10.5t-10.5 4.5zM283 416zM283 276h-87q-6 0 -10.5 -4.5
t-4.5 -10.5t4.5 -10.5t10.5 -4.5h87q6 0 10.5 4.5t4.5 10.5t-4.5 10.5t-10.5 4.5zM283 276zM745 728h-450q-28 0 -47.5 -19.5t-19.5 -47.5v-50h31v42q0 45 44 45h434q45 0 45 -45v-504q0 -45 -45 -45h-434q-44 0 -44 45v41h-31v-48q0 -28 19.5 -48t47.5 -20h450q27 0 47 20
t20 48v519q0 28 -20 47.5t-47 19.5zM745 728zM583 325q29 17 47 46.5t18 64.5q0 53 -37.5 91t-90.5 38t-91 -37.5t-38 -91.5q0 -35 18 -65t48 -46q-30 -13 -55 -35.5t-36 -50.5h33q15 30 47.5 48.5t68.5 20.5h5h5q36 -2 68.5 -20.5t47.5 -48.5h33q-11 28 -36 50.5t-55 35.5z
M421 436q0 41 29 70t70 29t70 -29t29 -70t-29 -69.5t-70 -28.5t-70 28.5t-29 69.5zM421 436z" />
    <glyph glyph-name="uniE65A" unicode="&#xe65a;" 
d="M511.5 831q-93.5 0 -178.5 -36.5t-146.5 -98t-98 -147t-36.5 -179t36.5 -178.5t98 -147t146.5 -98.5t178.5 -36.5t179 36.5t147 98.5t98 147t36.5 178.5t-36.5 179t-98 147t-147 98t-179 36.5zM512 -39q-111 0 -205.5 55t-149.5 149.5t-55 205.5t55 205.5t149.5 149.5
t205.5 55t205.5 -55t149.5 -149.5t55 -205.5t-55 -205.5t-149.5 -149.5t-205.5 -55zM512 254q42 0 71 29t29 71v218q0 41 -29 70.5t-71 29.5t-71.5 -29.5t-29.5 -70.5v-218q0 -42 29.5 -71t71.5 -29zM646 354q0 -55 -38.5 -94t-92.5 -40h-6q-55 1 -93 40t-38 94v100h-33
v-100q0 -65 43.5 -112.5t106.5 -53.5v-85h-100v-34h234v34h-100v85q63 6 106.5 53.5t43.5 112.5v100h-33v-100z" />
    <glyph glyph-name="uniE65B" unicode="&#xe65b;" 
d="M511.5 831q-93.5 0 -178.5 -36.5t-146.5 -98t-98 -147t-36.5 -179t36.5 -178.5t98 -147t146.5 -98.5t178.5 -36.5t179 36.5t147 98.5t98 147t36.5 178.5t-36.5 179t-98 147t-147 98t-179 36.5zM512 -39q-111 0 -205.5 55t-149.5 149.5t-55 205.5t55 205.5t149.5 149.5
t205.5 55t205.5 -55t149.5 -149.5t55 -205.5t-55 -205.5t-149.5 -149.5t-205.5 -55zM512 254q42 0 71 29t29 71v218q0 41 -29 70.5t-71 29.5t-71.5 -29.5t-29.5 -70.5v-218q0 -42 29.5 -71t71.5 -29zM646 354q0 -55 -38.5 -94t-92.5 -40h-6q-55 1 -93 40t-38 94v100h-33
v-100q0 -65 43.5 -112.5t106.5 -53.5v-85h-100v-34h234v34h-100v85q63 6 106.5 53.5t43.5 112.5v100h-33v-100z" />
    <glyph glyph-name="uniE65C" unicode="&#xe65c;" 
d="M512 -86q-92 0 -176 34.5t-149 99t-100 148t-35 175t35 175t100 148.5t149 99.5t176 34.5t176 -34.5t149 -99.5q88 -88 119.5 -205.5t0 -235.5t-119.5 -205q-65 -65 -149 -99.5t-176 -34.5v0v0zM512 768q-80 0 -153 -30t-129.5 -86t-87 -129t-30.5 -152.5t30.5 -152
t87 -129t129.5 -86.5t153 -30t153 30t130 87q76 76 103.5 178.5t0 205t-103.5 178.5q-57 56 -130 86t-153 30v0v0zM349 246l6 -9q4 -6 19.5 -20.5t32.5 -26t45.5 -21t59.5 -9.5t60.5 9t50.5 21.5t37.5 25t24.5 21.5l8 9h5q2 0 9 -2.5t12.5 -6.5t10 -13t4.5 -21
q-3 -4 -8.5 -10.5t-26 -24t-44 -30.5t-62.5 -24t-81 -11t-78.5 10.5t-58 25t-37 29.5t-21.5 25l-6 10q0 2 0.5 5t2 10.5t5 13t11.5 10t19 4.5v0v0zM378 518q-23 0 -39.5 -16.5t-16.5 -39.5t16.5 -39.5t40 -16.5t40 16.5t16.5 39.5t-16.5 39.5t-40.5 16.5v0v0zM667 518
q-23 0 -39.5 -16.5t-16.5 -40t16.5 -39.5t39.5 -16t39.5 16.5t16.5 39.5t-16.5 39.5t-39.5 16.5v0v0zM667 518z" />
    <glyph glyph-name="uniE65D" unicode="&#xe65d;" 
d="M511.5 831q-93.5 0 -178.5 -36.5t-146.5 -98t-98 -147t-36.5 -179t36.5 -178.5t98 -147t146.5 -98.5t178.5 -36.5t179 36.5t147 98.5t98 147t36.5 178.5t-36.5 179t-98 147t-147 98t-179 36.5zM512 -39q-111 0 -205.5 55t-149.5 149.5t-55 205.5t55 205.5t149.5 149.5
t205.5 55t205.5 -55t149.5 -149.5t55 -205.5t-55 -205.5t-149.5 -149.5t-205.5 -55zM512 254q42 0 71 29t29 71v218q0 41 -29 70.5t-71 29.5t-71.5 -29.5t-29.5 -70.5v-218q0 -42 29.5 -71t71.5 -29zM646 354q0 -55 -38.5 -94t-92.5 -40h-6q-55 1 -93 40t-38 94v100h-33
v-100q0 -65 43.5 -112.5t106.5 -53.5v-85h-100v-34h234v34h-100v85q63 6 106.5 53.5t43.5 112.5v100h-33v-100z" />
    <glyph glyph-name="uniE65E" unicode="&#xe65e;" 
d="M512 -86q-92 0 -176 34.5t-149 99t-100 148t-35 175t35 175t100 148.5t149 99.5t176 34.5t176 -34.5t149 -99.5q88 -88 119.5 -205.5t0 -235.5t-119.5 -205q-65 -65 -149 -99.5t-176 -34.5v0v0zM512 768q-80 0 -153 -30t-129.5 -86t-87 -129t-30.5 -152.5t30.5 -152
t87 -129t129.5 -86.5t153 -30t153 30t130 87q76 76 103.5 178.5t0 205t-103.5 178.5q-57 56 -130 86t-153 30v0v0zM349 246l6 -9q4 -6 19.5 -20.5t32.5 -26t45.5 -21t59.5 -9.5t60.5 9t50.5 21.5t37.5 25t24.5 21.5l8 9h5q2 0 9 -2.5t12.5 -6.5t10 -13t4.5 -21
q-3 -4 -8.5 -10.5t-26 -24t-44 -30.5t-62.5 -24t-81 -11t-78.5 10.5t-58 25t-37 29.5t-21.5 25l-6 10q0 2 0.5 5t2 10.5t5 13t11.5 10t19 4.5v0v0zM378 518q-23 0 -39.5 -16.5t-16.5 -39.5t16.5 -39.5t40 -16.5t40 16.5t16.5 39.5t-16.5 39.5t-40.5 16.5v0v0zM667 518
q-23 0 -39.5 -16.5t-16.5 -40t16.5 -39.5t39.5 -16t39.5 16.5t16.5 39.5t-16.5 39.5t-39.5 16.5v0v0zM667 518z" />
    <glyph glyph-name="uniE65F" unicode="&#xe65f;" 
d="M512 851q-95 0 -181.5 -37t-149 -99.5t-99.5 -149t-37 -181.5t37 -181.5t99.5 -149t149 -99.5t181.5 -37t181.5 37t149 99.5t99.5 149t37 181.5t-37 181.5t-99.5 149t-149 99.5t-181.5 37zM512 -32q-113 0 -208.5 56t-151.5 151.5t-56 208.5t56 208.5t151.5 151.5
t208.5 56t208.5 -56t151.5 -151.5t56 -208.5t-56 -208.5t-151.5 -151.5t-208.5 -56zM512 -18zM340 245h360v-66h-360v66zM340 245zM553 409h66v-66h-66v66zM553 409zM291 409h65v-66h-65v66zM291 409zM422 409h65v-66h-65v66zM422 409zM684 409h66v-66h-66v66zM684 409z
M569 556h66v-65h-66v65zM569 556zM405 556h66v-65h-66v65zM405 556zM258 556h65v-65h-65v65zM258 556zM717 556h65v-65h-65v65zM717 556z" />
    <glyph glyph-name="uniE660" unicode="&#xe660;" 
d="M665 441q0 -64 -45 -109t-109 -45t-109 45t-45 109t45 109t109 45t109 -45t45 -109zM761 161q27 -35 43 -77l4 -5q-59 -57 -135.5 -89t-161.5 -32q-116 0 -214 57t-155 155.5t-57 214t57 214t155 155.5t214 57t214 -57t155 -155.5t57 -214.5q0 -88 -34 -167t-95 -138z
M761 161q-45 59 -111 92.5t-142 33.5q-101 0 -182 -57t-116 -148l43 -37l79 -47l100 -32h114l95 12l60 37l47 30l31 32l23 12l-24 47z" />
    <glyph glyph-name="uniE661" unicode="&#xe661;" 
d="M954 384q0 91 -35 173q-33 79 -94.5 140.5t-140.5 95.5q-83 35 -173 35t-173 -35q-79 -34 -140.5 -95.5t-94.5 -140.5q-35 -82 -35 -172.5t35 -172.5q31 -75 88 -134l-1 -1l9 -7q21 -21 44 -38v-1q38 -28 81 -48l1 -1h1q7 -4 12 -6q44 -18 90 -27h1h1q40 -8 81 -8
q69 0 134 21h2l1 1q98 31 172 104l11 10v1q55 57 87 131q36 84 36 175zM813 108q-16 34 -39 64q-46 61 -115 96q-31 16 -63 25q39 22 62.5 61.5t23.5 86.5q0 71 -50 121t-121 50t-121 -50t-50 -121q0 -46 23 -85.5t61 -61.5q-59 -15 -109 -50q-72 -51 -110 -131
q-103 116 -103 271q0 111 54.5 205.5t149 149.5t205.5 55t205 -55t149 -149.5t55 -205.5q0 -159 -107 -276z" />
    <glyph glyph-name="uniE662" unicode="&#xe662;" 
d="M942 391q0 117 -57.5 216t-156.5 157t-216 58t-216 -58t-156.5 -157t-57.5 -215.5t57.5 -216t156.5 -157t216 -57.5q84 0 161.5 31.5t138.5 90.5l11 10v1q58 60 88.5 136.5t30.5 160.5zM512 -6q-78 0 -148 28.5t-124 79.5q34 81 107.5 129.5t161.5 48.5t162.5 -50
t107.5 -132q-113 -104 -267 -104zM379 446q0 55 39 94t94 39t94 -39t39 -94t-39 -94t-94 -39t-94 39t-39 94zM805 123q-30 66 -86 113t-125 66q38 22 61 60.5t23 83.5q0 69 -48.5 117.5t-117.5 48.5t-117.5 -48.5t-48.5 -117.5q0 -45 22.5 -83t59.5 -60q-69 -18 -125.5 -64
t-87.5 -111q-100 113 -100 263q0 108 53 199.5t144.5 145t199.5 53.5t199.5 -53.5t144.5 -145t53 -199.5q0 -155 -104 -268z" />
    <glyph glyph-name="uniE663" unicode="&#xe663;" 
d="M416 414q43 -34 103 -34t102 34q45 35 45 86t-45 87q-42 34 -102 34t-103 -34q-44 -36 -44 -87t44 -86zM519 585q46 0 79 -25t33 -60t-33 -60t-79 -25t-79 25t-33 60t33 60t79 25zM648 375h-258q-40 0 -59 -34q-15 -27 -15 -72q0 -89 45 -200q20 -49 41 -79
q27 -38 52 -38h130q25 0 52 38q21 30 41 79q44 111 44 200q0 45 -14 72q-20 34 -59 34zM648 92q-19 -48 -38 -78q-17 -25 -26 -27h-130q-8 1 -26 27q-19 30 -38 78q-42 110 -38 189q1 20 5.5 33.5t11.5 18t11 6t10 1.5h258q34 0 38 -59q4 -79 -38 -189zM925 529
q-33 79 -94 140t-140 95q-82 35 -172 35t-171.5 -35t-140.5 -94.5t-94 -141t-35 -171.5q0 -111 52.5 -209t146.5 -159q6 -4 13 -2.5t11 7.5t2.5 13t-7.5 11q-86 57 -134.5 147t-48.5 192q0 110 54.5 203.5t148 148t203.5 54.5t203.5 -54.5t148 -148t54.5 -203.5
q0 -102 -48.5 -192t-134.5 -147q-6 -4 -7.5 -11t2.5 -13q5 -8 15 -8q5 0 9 3q94 61 146.5 159t52.5 209q0 90 -35 172z" />
    <glyph glyph-name="uniE664" unicode="&#xe664;" 
d="M643 410h-255q-39 0 -58 -34q-14 -26 -14 -71q0 -88 44 -197q19 -48 40 -78q26 -38 51 -38h128q25 0 51 38q21 30 41 78q44 109 44 197q0 45 -15 71q-19 34 -57 34zM916 561q-33 79 -93 139t-138 93q-81 34 -170 34q-88 0 -168.5 -34.5t-139 -92.5t-93 -138.5
t-34.5 -169.5q0 -110 52 -206.5t144 -156.5q5 -3 10 -3q9 0 15 8q4 6 2.5 13t-7.5 11q-85 56 -133 144.5t-48 189.5q0 109 53.5 201t146 145.5t201 53.5t200.5 -53.5t145.5 -145.5t53.5 -201q0 -101 -47.5 -190t-132.5 -144q-6 -4 -7.5 -11t2.5 -13.5t11 -7.5t13 3
q92 60 144 156.5t52 206.5q0 89 -34 169zM414 454q42 -34 101 -34t101 34q44 35 44 85.5t-44 84.5q-42 34 -101 34t-101 -34q-44 -34 -44 -84.5t44 -85.5z" />
    <glyph glyph-name="uniE665" unicode="&#xe665;" 
d="M528 -1q-114 0 -211 57l-15 10l-157 -42l42 153l-10 16q-63 100 -63 221q0 112 55.5 207.5t151 151t207.5 55.5q83 0 159 -31.5t134.5 -90t89.5 -134.5t31 -159q0 -112 -55.5 -207.5t-151 -151t-207.5 -55.5zM755 309q-66 34 -85 41t-28 -7q-9 -13 -40 -49
q-10 -11 -26 -3q-1 1 -14 6.5t-23.5 11t-28.5 18t-35 26.5q-39 35 -69 86q-8 13 5 26q4 3 11 12t8 10q5 6 13 20q4 10 -1 22q-3 5 -39 93q-2 6 -5 10t-5 6t-5 3.5t-4 1.5h-5h-4q-7 1 -24 1q-19 0 -33 -16l-2 -2q-42 -44 -42 -102q0 -61 51 -129l5 -7q5 -6 10.5 -13.5
t15 -19.5t20.5 -24t24 -26t29 -27t32.5 -26t36.5 -24.5t40 -20.5q30 -13 71 -26q36 -11 79 -5q20 3 48 21t36 38q7 20 8.5 38.5t-1.5 20.5q-2 4 -24 15z" />
    <glyph glyph-name="uniE666" unicode="&#xe666;" 
d="M822 694q-62 62 -142 95t-168 33q-89 0 -170.5 -34.5t-140 -93t-93.5 -140t-35 -170.5q0 -127 68 -233l6 -10l-49 -176l181 47l9 -5q104 -61 224 -61q89 0 170 34.5t139.5 93.5t93.5 140t35 170q0 88 -33 168t-95 142zM512 -21q-111 0 -206 57l-22 12l-138 -36l37 135
l-14 22q-62 98 -62 215q0 110 54.5 203t147.5 147.5t203 54.5q81 0 155 -30.5t131 -88t87.5 -131.5t30.5 -155q0 -110 -54 -203t-147.5 -147.5t-202.5 -54.5zM756 290l-6 3q-68 35 -88 42q-12 4 -19 4q-18 0 -30 -17q-8 -13 -38 -48q-1 -1 -2 -1q-2 0 -5 2q-3 1 -10 4
q-51 22 -89 56t-67 84q0 1 -1 2q1 1 4 3q4 5 13 16l7 7q7 9 13 22q1 2 2 3q9 18 -1 37q-3 5 -32 78q-4 9 -7 15q-13 33 -40 33h-2h-1h-25q-27 0 -46 -21q-1 -1 -2 -3q-47 -49 -47 -114q0 -68 55 -141v-1l2 -3q99 -140 221 -193q32 -14 74 -27q26 -9 54 -9q16 0 33 3
q25 4 57.5 24.5t41.5 46.5q8 21 10 41.5t-4 32.5q-5 9 -25 19zM744 208q-6 -14 -30.5 -30t-42.5 -19q-15 -2 -28 -2q-23 0 -44 7q-40 13 -70 26q-114 49 -207 182q-2 3 -3 4q-48 64 -48 121q0 52 37 91l3 3q9 10 21 10h23h3h2h2q3 -2 7 -11q2 -4 6 -15q31 -75 34 -81
q2 -4 1 -7q-1 -1 -2 -3q-5 -10 -9 -14q-2 -3 -7 -9q-8 -10 -11 -13q-9 -8 -12 -16q-5 -15 4 -30q32 -54 74 -92q42 -37 98 -62q6 -2 7 -3q12 -6 22 -6q15 0 26 13q32 37 42 51q0 2 1 3q2 -1 7 -3q18 -6 85 -40q2 -1 7 -3l10 -5q1 -19 -8 -47z" />
    <glyph glyph-name="uniE667" unicode="&#xe667;" 
d="M744 562h167q35 -77 39 -162h-193q-1 85 -13 162zM671 792q71 -28 129 -79t95 -118h-157q-22 115 -67 197zM530 595v226q52 -2 101 -16q51 -85 75 -210h-176zM317 205q-12 79 -13 163h194v-163h-181zM317 562h181v-162h-195q2 85 14 162zM398 806q51 14 100 15v-226h-176
q25 125 76 211zM128 595q38 68 97.5 119.5t132.5 78.5q-45 -82 -68 -198h-162zM271 400h-196q3 86 37 162h172q-12 -77 -13 -162zM285 205h-172q-36 80 -39 163h197q1 -83 14 -163zM290 173q23 -117 69 -199q-73 28 -132.5 79t-97.5 120h161zM498 173v-226q-49 1 -99 14
q-51 85 -76 212h175zM705 173q-24 -127 -76 -211q-45 -12 -99 -15v226h175zM530 368h195q-1 -84 -14 -163h-181v163zM725 400h-195v162h181q13 -77 14 -162zM757 368h192q-3 -83 -39 -163h-166q12 80 13 163zM895 173q-37 -68 -95 -119t-130 -78q46 81 68 197h157z" />
    <glyph glyph-name="uniE668" unicode="&#xe668;" 
d="M511 820q-116 0 -214 -58.5t-155 -159t-57 -219t57 -219t155 -159t214 -58.5t214.5 58.5t155.5 159t57 219t-57 219t-155.5 159t-214.5 58.5zM371 764q-41 -77 -62 -185h-146q34 64 88 111.5t120 73.5zM148 549h156q-11 -71 -12 -150h-178q3 79 34 150zM114 368h178
q1 -77 13 -150h-156q-33 74 -35 150zM163 187h147q20 -108 62 -184q-67 25 -120.5 73t-88.5 111zM498 -23q-44 2 -89 14q-47 78 -70 196h159v-210zM498 218h-164q-11 73 -12 150h176v-150zM498 399h-176q1 78 12 150h164v-150zM498 579h-159q22 117 69 197q46 12 90 14v-211
zM909 399h-175q-1 79 -12 150h152q32 -72 35 -150zM859 579h-142q-21 107 -62 184q65 -26 117.5 -73.5t86.5 -110.5zM528 790q46 -2 91 -15q46 -80 68 -196h-159v211zM528 549h164q11 -72 12 -150h-176v150zM528 368h176q-1 -77 -12 -150h-164v150zM528 -22v209h159
q-23 -117 -69 -195q-42 -12 -90 -14zM654 4q42 76 63 183h142q-34 -62 -86.5 -109.5t-118.5 -73.5zM873 218h-152q12 73 13 150h174q-3 -76 -35 -150z" />
    <glyph glyph-name="uniE669" unicode="&#xe669;" 
d="M929 663q-11 0 -19 -6.5t-8 -15.5v-566q0 -18 -15.5 -31t-37.5 -13h-638q-22 0 -37.5 13t-15.5 31v618q0 18 15.5 31t37.5 13h612q11 0 18.5 6.5t7.5 15.5t-7.5 15.5t-18.5 6.5h-612q-44 0 -75 -26t-31 -62v-618q0 -36 31 -62t75 -26h638q44 0 75.5 26t31.5 62v566
q0 9 -8 15.5t-19 6.5zM214 509q-10 0 -16 -7t-4 -17t10.5 -17t18.5 -7h632q11 0 17 7t4 17t-10.5 17t-19.5 7h-632zM846 297l-632 -1q-10 0 -16 -7t-4 -17t10.5 -17t18.5 -7l632 1q11 -1 17 6t4 17t-10.5 17.5t-19.5 7.5z" />
    <glyph glyph-name="uniE66A" unicode="&#xe66a;" 
d="M635 797q-80 21 -161 10.5t-153 -50t-122 -102t-71 -139.5q-29 -105 0 -207.5t106.5 -177.5t186.5 -103q53 -14 107 -14q115 0 215 59q7 4 9 12t-2 15t-12.5 9t-15.5 -2q-67 -39 -141.5 -49.5t-149.5 8.5q-97 25 -167 93t-96 160t0 186q19 70 64 126t109 92
q134 74 283 36q72 -19 130.5 -62t95.5 -105q77 -129 37 -272q-14 -50 -42 -94q-4 -7 -2 -15t9.5 -12.5t15.5 -2.5t13 9q31 50 46 104q29 105 0 207.5t-106.5 177.5t-185.5 103zM548 592q0 8 -6 14t-14.5 6t-14.5 -6t-6 -14v-219q0 -9 6 -14.5t14.5 -5.5t14.5 5.5t6 14.5v219
zM527.5 293q-8.5 0 -14.5 -6t-6 -14v-40q0 -8 6 -14t14.5 -6t14.5 6t6 14v40q0 8 -6 14t-14.5 6z" />
    <glyph glyph-name="uniE66B" unicode="&#xe66b;" 
d="M617 741q-85 0 -145.5 -59t-60.5 -141q0 -56 29.5 -103.5t79.5 -72.5q-103 -31 -168 -115.5t-65 -190.5q0 -8 5.5 -14t14 -6t14 6t5.5 14q0 116 85 199t205 83q3 -1 6 0q84 2 142.5 60t58.5 140t-60.5 141t-145.5 59zM617 379q-69 0 -118 47.5t-49 114.5t49 114t118 47
t118 -47t49 -114t-49 -114.5t-118 -47.5zM851 285q-6 5 -14 5t-13.5 -5.5t-6 -13.5t5.5 -13q85 -83 85 -199q0 -8 6 -14t14 -6t14 6t6 14q0 132 -97 226zM409 374v0q0 8 -6 13.5t-14 5.5q-53 0 -91 39.5t-38 95t38 95t91 39.5q8 0 14 5.5t6 13.5t-6 13.5t-14 5.5
q-70 0 -119.5 -50.5t-49.5 -121.5q0 -47 23 -86.5t61 -62.5q-81 -28 -132 -99.5t-51 -160.5q0 -8 5.5 -13.5t14 -5.5t14 5.5t5.5 13.5q0 98 67.5 167t161.5 69q8 0 14 5.5t6 13.5z" />
    <glyph glyph-name="uniE66C" unicode="&#xe66c;" 
d="M411 484.5q-38 -38.5 -38 -92.5t38 -93q7 -7 18 -15q6 -4 14 -2.5t12 7.5t3 14t-8 12q-8 6 -13 11q-27 27 -27 66t27.5 66.5t66 27.5t66 -27.5t27.5 -66.5t-28 -66q-5 -5 -13 -11q-6 -4 -7.5 -11.5t3 -14t12 -8t14.5 2.5q11 8 18 15q38 39 38 93.5t-38 92.5t-92.5 38
t-92.5 -38.5zM878 293q-48 45 -48 110t48 110q9 8 5 20q-13 36 -31 67.5t-43 60.5q-8 9 -20 6q-62 -20 -118 13t-71 96q-3 12 -15 15q-73 14 -147 0q-12 -2 -15 -14q-14 -64 -70 -96.5t-119 -13.5q-11 4 -19 -6q-49 -57 -74 -128q-4 -11 5 -20q48 -44 48 -109t-48 -110
q-9 -8 -5 -20q13 -36 31 -67.5t43 -60.5q8 -10 20 -6q62 19 118 -13.5t71 -96.5q3 -12 15 -14q73 -14 147 0q3 0 6 2q7 4 9 12q14 64 70 96.5t119 12.5q11 -3 19 6q49 57 74 128q4 12 -5 20zM789 179q-72 17 -136 -20t-85 -108q-56 -9 -111 0q-21 71 -85 108t-136 20
q-18 22 -31.5 46t-23.5 50q50 55 50 128.5t-51 128.5q20 52 55 96q73 -17 136 20q64 37 85 108q56 9 111 0q21 -72 85 -109t136 -20q18 -22 31.5 -45.5t23.5 -50.5q-50 -54 -50 -128t51 -128q-20 -53 -55 -96z" />
    <glyph glyph-name="uniE66D" unicode="&#xe66d;" 
d="M879 223h-45q-8 29 -25.5 97t-31.5 119t-21 70q-82 225 -230 238v20q0 8 -5.5 13.5t-14 5.5t-14 -5.5t-5.5 -13.5v-20q-41 -3 -76 -20.5t-59 -41t-45 -57t-33 -62t-24 -63.5q-31 -92 -77 -280h-38q-8 0 -13.5 -6t-5.5 -14t5.5 -13.5t13.5 -5.5h49q2 -1 4 -1t4 1h687
q8 0 14 5.5t6 13.5t-6 14t-14 6zM213 223q45 182 74 268q37 110 90 163.5t127 54.5h2h3q68 -1 119.5 -53t90.5 -160q7 -18 19.5 -65.5t30 -113.5t24.5 -94h-580zM618 102.5q-7 4.5 -15 2t-12 -9.5q-29 -48 -84.5 -48t-84.5 48q-4 7 -12 9.5t-15 -2t-9 -12t2 -14.5
q19 -32 50.5 -50t68 -18t68 18t50.5 50q4 7 2 14.5t-9 12z" />
    <glyph glyph-name="uniE66E" unicode="&#xe66e;" 
d="M907 533q-9 25 -42 36q-64 22 -187 62q-80 100 -123 153q-15 18 -36 22.5t-40 -5.5q-13 -7 -23 -20q-44 -58 -118 -160q-124 -48 -188 -75q-27 -11 -34 -40q-7 -27 9 -50q39 -58 115 -163q6 -131 11 -200q2 -34 25 -49q22 -15 50 -7q35 11 98 36t69 27q13 -3 100.5 -22.5
t119.5 -27.5q28 -7 47 3q27 15 28 54q2 70 2 202q72 110 107 167q20 31 10 57zM861 498q-30 -48 -111 -171q-3 -5 -3 -12v-37q0 -33 -0.5 -85.5t-1.5 -84.5q0 -14 -5 -17t-17 0q-19 5 -49.5 12t-60 14t-56 13t-43.5 10l-16 3q-7 2 -13 0l-6 -3q-6 -2 -16.5 -6.5t-24 -10
t-29.5 -11.5l-32 -12q-16 -6 -33 -12t-31 -10q-8 -2 -12 1q-6 4 -7 17q-1 12 -2 26.5t-1.5 29t-1.5 30t-1.5 30t-1.5 28t-1.5 24.5t-1 19.5t-0.5 12.5v5q0 7 -4 12q-88 122 -119 167q-5 7 -3 16q2 7 10 11q97 40 193 76q6 3 9 8l5 6q4 6 11.5 16.5t17.5 24t21.5 29t22.5 31
t22.5 31t20.5 27.5q5 5 9 8q11 6 22 -8q69 -82 127 -157q4 -5 11 -7q189 -62 192 -63q14 -5 16 -11t-6 -20z" />
    <glyph glyph-name="uniE66F" unicode="&#xe66f;" 
d="M492 316q98 0 167.5 70t69.5 169t-69.5 169t-167.5 70t-167.5 -70t-69.5 -169q0 -69 36.5 -127t96.5 -87q-84 -26 -147 -90q-104 -105 -104 -254q0 -8 6 -13.5t14 -5.5t13.5 5.5t5.5 13.5q0 133 93 226q89 90 214 93h9zM295 555q0 83 58 141t139.5 58t139.5 -58t58 -141
q0 -81 -57 -139.5t-138 -59.5h-3h-9q-78 4 -133 61.5t-55 137.5zM907 43l-183 207q-10 11 -19.5 0.5t0.5 -21.5l160 -181h-453q-5 0 -9 -4.5t-4 -11t4 -11t9 -4.5h486q9 0 12.5 9.5t-3.5 16.5z" />
    <glyph glyph-name="uniE670" unicode="&#xe670;" 
d="M532 -7q-112 0 -209 57l-8 6l-169 -45l45 165l-6 9q-63 100 -63 218q0 112 55 206t149.5 149t205.5 55q82 0 157 -31t133 -89q43 -43 71 -96q49 -90 49 -194q0 -111 -55 -205.5t-149.5 -149.5t-205.5 -55zM319 90l20 -12q89 -53 193 -53q102 0 189.5 50.5t138 138
t50.5 189.5q0 96 -44 179q-27 49 -66 89q-54 53 -123 82t-145 29q-102 0 -189.5 -51t-138 -138t-50.5 -190q0 -109 58 -201l13 -21l-35 -125zM655 160q-26 0 -51 7q-39 13 -68 26q-115 49 -207 181q-2 2 -2 3q-52 69 -52 132q0 61 44 107l2 2q18 20 43 20h24h1h1
q26 0 38 -31l5 -11q29 -71 31 -76q9 -18 1 -34q-1 -1 -2 -3q-6 -13 -12 -20q-2 -3 -6 -8q-9 -10 -13 -14q-2 -3 -3 -4l1 -1q27 -46 62 -78q36 -32 83 -53q7 -3 9 -4q4 -1 6 -2q0 1 1 2q28 33 36 44q11 17 27 17q7 0 18 -4q19 -7 83 -40q2 -1 6 -2q19 -10 23 -18
q12 -21 -6 -70q-8 -24 -38.5 -43.5t-53.5 -22.5q-16 -2 -31 -2zM614 197q20 -6 41 -6q12 0 26 2q17 3 40 17.5t28 28.5q9 26 7 43q-2 2 -9 5l-6 3q-62 32 -79 38q-5 2 -7 2l-2 -2q-9 -14 -38 -48q-11 -12 -25 -12q-9 0 -20 5q-1 1 -7 3q-52 23 -92 58q-39 35 -69 86
q-8 14 -3 28q3 7 11 15q3 3 10 12q5 6 7 8q4 5 8 13l2 4q1 2 -1 6q-3 6 -33 78l-4 11q-4 10 -6 11h-3h-1h-3h-22q-11 0 -20 -9q-1 -1 -2 -3q-35 -37 -35 -85q0 -53 45 -113q1 -1 3 -4q87 -124 193 -170q28 -12 66 -25z" />
    <glyph glyph-name="uniE671" unicode="&#xe671;" 
d="M869 542q-27 66 -78 116.5t-117 78.5q-68 28 -142 28q-117 0 -211 -67q-45 -31 -79 -75t-53 -96q-23 -61 -23 -128q0 -74 29 -142q27 -66 78 -116.5t116 -78.5q68 -29 142.5 -29t142.5 29q66 28 117 78.5t78 116.5q29 68 29 142.5t-29 142.5zM837 552l-169 -158v4
q0 5 -1 11l1 303q113 -50 169 -160zM531 286q-47 0 -80 33t-33 79t33 79t79.5 33t79.5 -33t33 -79t-33 -79t-79 -33zM643 722l-1 -245q-18 26 -45 41l-195 196q63 26 130 26q57 0 111 -18zM378 703l167 -169q-7 1 -14 1h-6h-306q49 112 159 168zM191 399q0 57 18 111h242
q-14 -10 -26 -24l-214 -201q-20 55 -20 114zM221 260l175 164q-3 -13 -3 -26q0 -15 3 -29l-1 -282q-58 25 -103 70t-71 103zM420 77l1 238q19 -25 47 -39l193 -193q-62 -25 -129 -25q-58 0 -112 19zM685 95l-167 166h13q29 0 56 12l261 -1q-23 -58 -65.5 -103.5t-97.5 -73.5
zM857 297l-233 1q25 23 36 54l188 176q25 -62 25 -129q0 -52 -16 -102zM857 297z" />
    <glyph glyph-name="uniE672" unicode="&#xe672;" 
d="M523 56q-131 0 -223.5 93t-92.5 224t92.5 223.5t223.5 92.5t224 -92.5t93 -223.5q0 -134 -96 -227q-92 -90 -221 -90zM523 665q-121 0 -206.5 -86t-85.5 -206.5t85.5 -206.5t206.5 -86q119 0 204 83q89 86 89 210q0 120 -86 206t-207 86zM523.5 291q-50.5 0 -86.5 35.5
t-36 86t36 86.5t86.5 36t86 -36t35.5 -86.5t-35.5 -86t-86 -35.5zM523.5 511q-40.5 0 -69 -29t-28.5 -69t28.5 -69t69 -29t69 29t28.5 69t-28.5 69t-69 29zM320 152l-23 9q27 69 88.5 111.5t135.5 42.5t135.5 -42t87.5 -111l-22 -9q-24 62 -79.5 100t-121.5 38
q-67 0 -122 -38t-79 -101z" />
    <glyph glyph-name="uniE673" unicode="&#xe673;" 
d="M515 713q-129 0 -220 -89t-91 -215t91 -216l-17 -104l75 60q75 -45 162 -45q130 0 221 89.5t91 215.5t-91 215t-221 89zM515 129q-82 0 -153 42l-11 6l-43 -35l10 61l-10 9q-84 82 -84 197t85.5 197.5t206 82.5t205.5 -82.5t85 -198t-85 -197.5t-206 -82zM515 129z
M380 425q-8 0 -14 -7t-6 -17t6 -17t14.5 -7t14.5 7t6 17t-6 17t-15 7zM380 425zM515 425q-8 0 -14 -7t-6 -17t6 -17t14.5 -7t14.5 7t6 17t-6 17t-15 7zM515 425zM651 425q-9 0 -15 -7t-6 -17t6 -17t14.5 -7t14.5 7t6 17t-6 17t-14 7zM651 425z" />
    <glyph glyph-name="uniE674" unicode="&#xe674;" 
d="M703 606q-21 -248 -21 -257q0 -91 52 -91q49 0 80.5 53t31.5 137q0 124 -78.5 202.5t-216.5 78.5q-135 0 -223.5 -94.5t-88.5 -236.5q0 -139 83 -223.5t226 -84.5q111 0 192 37v-60q-79 -34 -198 -34q-167 0 -269 100t-102 262q0 168 107 278.5t275 110.5q157 0 259 -92
t102 -240q0 -110 -55 -179.5t-133 -69.5q-101 0 -102 106h-2q-34 -106 -129 -106q-63 0 -101.5 45.5t-38.5 124.5q0 103 53.5 171t137.5 68q33 0 58.5 -16.5t32.5 -41.5h2q0 2 4 52h62zM422 372q0 -51 22 -82t62 -31q55 0 87 55.5t32 146.5q0 96 -80 96q-55 0 -89 -53.5
t-34 -131.5z" />
    <glyph glyph-name="uniE675" unicode="&#xe675;" 
d="M523.5 714q-92.5 0 -171 -45.5t-124 -124t-45.5 -171t45.5 -171t124 -124t171 -45.5t171 45.5t124 124t45.5 171t-45.5 171t-124 124t-171 45.5zM520.5 98q-113.5 0 -194 80.5t-80.5 194.5t80.5 194.5t194 80.5t194 -80.5t80.5 -194.5t-80.5 -194.5t-194 -80.5zM600 357
h-78v132q0 10 -7.5 17.5t-18.5 7.5t-18.5 -7.5t-7.5 -17.5v-158q0 -11 7.5 -18.5t18.5 -7.5h104q11 0 18.5 7.5t7.5 18.5t-7.5 18.5t-18.5 7.5z" />
    <glyph glyph-name="uniE676" unicode="&#xe676;" 
d="M848 453q-8 0 -13.5 -5.5t-5.5 -13.5v-332q0 -16 -11 -27t-27 -11h-562q-16 0 -27 11t-11 27v542q0 16 11 27t27 11h362q8 0 13.5 5.5t5.5 13.5t-5.5 13t-13.5 5h-366q-30 0 -50.5 -20.5t-20.5 -50.5v-550q0 -30 20.5 -50.5t50.5 -20.5h570q30 0 50.5 20.5t20.5 50.5v336
q0 8 -5.5 13.5t-12.5 5.5v0zM499 213l357 356q16 16 14.5 40t-19.5 42l-33 34q-18 17 -42 18.5t-40 -14.5l-357 -357zM763 662q6 6 15 5.5t16 -6.5l33 -34q7 -7 7.5 -16t-5.5 -15l-40 -39l-65 66zM761 528l-265 -265l-66 66l266 266zM379 331l-36 -134q-3 -9 4 -16t16 -5
l135 37l-28 28l-87 -24l24 87zM379 331z" />
    <glyph glyph-name="uniE677" unicode="&#xe677;" 
d="M512 815q-114 0 -210.5 -56t-152.5 -152.5t-56 -210.5t56 -210.5t152.5 -152.5t210.5 -56t210.5 56t152.5 152.5t56 210.5t-56 210.5t-152.5 152.5t-210.5 56zM878 396q0 -75 -29 -142q-28 -66 -78 -117q-50 -50 -116 -78q-68 -29 -143 -29t-143 29q-65 28 -116 78
q-50 50 -78 117q-29 67 -29 142t29 143q28 65 78 116q50 50 116 78q68 29 143 29t143 -29q65 -28 116 -78q50 -50 78 -116q29 -68 29 -143zM878 396zM756 307q-5 2 -12 2q-17 0 -24 -15q-13 -28 -46 -55q-64 -56 -161 -56q-99 0 -163 56q-13 12 -24 25.5t-15 20.5l-4 8
q-7 16 -24 16q-7 0 -11 -2q-9 -5 -14 -15q-4 -10 0 -20q1 -3 5.5 -11.5t18.5 -27t32 -33.5q34 -31 78 -48q54 -22 121 -22q64 0 118 22q43 17 79 48q39 34 58 71q5 10 1.5 20.5t-13.5 15.5zM756 307zM333 449h7q13 0 22 9t9 21v56q0 13 -9 21.5t-22 8.5h-7q-13 0 -22 -8.5
t-9 -21.5v-56q1 -12 9.5 -21t21.5 -9zM333 449zM684 449h8q12 0 21 9t9 21v56q0 13 -9 21.5t-21 8.5h-8q-12 0 -21 -8.5t-9 -21.5v-56q0 -12 9 -21t21 -9zM684 449z" />
    <glyph glyph-name="uniE678" unicode="&#xe678;" 
d="M766 461q-19 25 -50 25h-134q7 15 8 26l2 9q15 57 -4 114l-4 12q-7 18 -23.5 30t-36.5 12h-2q-26 0 -45.5 -18.5t-19.5 -44.5v-16q0 -59 -39 -98.5t-96 -39.5h-62q-26 0 -45 -20.5t-19 -47.5v-220q0 -26 18.5 -44.5t45.5 -18.5h388q21 0 38 13t23 34l68 237q9 30 -11 56z
M228 184v220q0 14 10 25t22 11h52v-287h-52q-13 0 -22.5 9t-9.5 22zM746 414l-68 -237q-3 -11 -11.5 -17.5t-18.5 -6.5h-304v288q64 8 104.5 55t40.5 114v16q0 12 10.5 21.5t22.5 9.5h2q22 0 29 -21l4 -11q16 -48 4 -96l-3 -11v-2v-1q0 -5 -5 -15.5t-9 -13.5h-10v-32h182
q15 0 24 -12q10 -13 6 -28z" />
    <glyph glyph-name="uniE679" unicode="&#xe679;" 
d="M526 220l364 350l-42 31l-337 -315l-336 302l-41 -33l359 -332l18 -17v1l1 -1z" />
    <glyph glyph-name="uniE67A" unicode="&#xe67a;" 
d="M1024 300q0 104 -40.5 198.5t-109 163t-163 109t-199 40.5t-199 -40.5t-163 -109t-109 -163t-40.5 -198.5q0 -128 59 -239t161.5 -182t227.5 -86q22 -5 52 -5q9 0 17 1q103 1 196.5 42t161.5 109t108 162.5t40 197.5zM951 293q-2 38 -10 74q1 14 0 25q10 -45 10 -92v-7z
M74 300q0 46 9 90q14 -16 40.5 -13.5t34.5 24.5q5 -3 19 -9t20.5 -12t6.5 -16q0 -24 0.5 -39t2.5 -36t6.5 -34t12.5 -25.5t20.5 -19t29.5 -6.5q2 0 11 -5t23 -19.5t22 -34.5q3 -7 10.5 -7t22 3.5t23.5 3.5q6 0 6 -6.5t-3 -26t-3 -37.5q0 -14 11.5 -31.5t25 -31.5t31 -29.5
t24.5 -20.5t11 -8q-1 -46 4 -78q-34 1 -58 -8q-156 28 -259.5 149.5t-103.5 282.5zM620 -125q-4 20 -30 13q10 40 14 55t13.5 35t24.5 32q20 20 19 37.5t-15.5 29t-31.5 8.5q-9 -1 -13 3.5t-4.5 11.5t-4.5 13t-11 7q-13 1 -42.5 29t-45.5 35l-23 16q-23 16 -40 16
q-6 1 -15 -1t-16.5 -4.5t-14 -4t-10.5 0t-4 5.5q0 24 -1.5 46t-3 41.5t-2.5 19.5q0 3 -1 6q0 1 2 1q9 -3 24 -3q10 0 14.5 18.5t12.5 18.5q8 1 36 -6t34 -3q2 1 8 -7q3 -6 12 -21q28 -52 39 -53q13 -1 13 53q0 5 -1.5 18t-1.5 23.5t3 17.5q9 15 19.5 34.5t17.5 31.5t13.5 24
t9 18.5t2 8.5t-10 3.5t-23.5 0.5t-26 -5q-4 -2 -3.5 -10t-6.5 -10q-24 -4 -43 -0.5t-28 14t-2 21.5q5 8 23 13t33 13.5t17 28.5q3 32 6 78q34 -5 41 21q6 29 -25 52q-21 16 -53 19q140 -2 252 -84t157 -211q-5 5 -11 5q-16 42 -47 33q-25 -7 -30 -39q-3 -18 4 -37
q-147 -112 -52 -201q26 -24 55 -72q-8 -24 12 -23q28 1 58 39q10 14 18 30q-32 -111 -116.5 -192.5t-197.5 -110.5z" />
    <glyph glyph-name="uniE67B" unicode="&#xe67b;" 
d="M635 770h323v-44q-118 -11 -167 -143l-237 -583h-105l-249 611q-43 98 -136 115v44h422v-44q-137 -6 -87 -104l168 -457l174 446q56 115 -106 115v44zM635 770z" />
    <glyph glyph-name="uniE67C" unicode="&#xe67c;" 
d="M835 684q-65 64 -148 98t-174.5 34t-175 -34t-148.5 -98.5t-99.5 -147t-34.5 -173.5t34.5 -174t99.5 -147t148 -98.5t174.5 -34.5t175 34.5t148.5 98.5q88 87 119 204t0 234t-119 204zM793 84q-56 -56 -129 -86t-152.5 -30t-152 30t-128.5 85.5t-86 128t-30 151.5t30 151
t86 128t128.5 85.5t152.5 29.5t152.5 -29.5t128.5 -85.5q57 -57 86.5 -131t29.5 -148.5t-29.5 -148.5t-86.5 -130zM539 551h-54v-161h-161v-54h161v-161h54v161h161v54h-161v161z" />
    <glyph glyph-name="uniE67D" unicode="&#xe67d;" 
d="M358 496l-118 -110l118 -109q6 6 13.5 16.5t20 39.5t12.5 53.5t-11.5 52t-22.5 42.5zM505 633l-64 -64q3 -2 8 -6.5t17.5 -21t22 -35.5t17.5 -51.5t8 -68.5t-7.5 -68t-18.5 -52t-21.5 -35t-18.5 -21l-7 -7l64 -64q4 5 10.5 14t24 36.5t31 55t24 66.5t10.5 75t-10 74.5
t-25 68t-30 54t-25 37.5zM788 386q0 170 -122 341l-33 43l-64 -64q5 -5 13.5 -14.5t30.5 -42t39 -67.5t31 -88.5t14 -107t-14 -107t-31 -88.5t-39 -67.5t-30.5 -42.5t-13.5 -15l64 -64l15 20q16 19 39.5 55.5t46 82t38.5 106.5t16 120z" />
    <glyph glyph-name="uniE67E" unicode="&#xe67e;" 
d="M221 896l569 -512l-569 -512v1024z" />
    <glyph glyph-name="uniE67F" unicode="&#xe67f;" 
d="M530 682q-16 0 -33 -16l-105 -107h-86q-26 0 -42.5 -18t-16.5 -46v-172q0 -30 16 -53.5t43 -23.5h75l116 -111q15 -15 30 -15q20 0 30 19q6 12 6 29v471q0 22 -10 32.5t-23 10.5zM521 170l-117 112q-6 6 -14 6h-84q-6 0 -11.5 11.5t-5.5 23.5v172q0 22 17 22h94q9 0 15 7
l106 106v-460zM628 538q-9 1 -15.5 -4.5t-7.5 -14.5t5 -15.5t14 -6.5q37 -3 61.5 -30.5t24.5 -64t-24.5 -64t-61.5 -29.5q-8 -1 -14 -7.5t-5 -15.5q1 -8 7 -13.5t14 -5.5h2q52 4 88 43.5t36 92.5t-36 92t-88 43zM513 822q-88 0 -168.5 -34.5t-139 -92.5t-93 -138.5
t-34.5 -169t34.5 -169t93 -139t139 -93t169 -34.5t169 34.5t139 93t93 139t34.5 169t-34.5 169t-93 138.5t-139 92.5t-169.5 34.5zM513 -20q-110 0 -204 54.5t-148.5 148.5t-54.5 204.5t54.5 204t148.5 148t204.5 54.5t204 -54.5t148 -148t54.5 -204t-54.5 -204.5
t-148 -148.5t-204.5 -54.5zM530 682q-16 0 -33 -16l-105 -107h-86q-26 0 -42.5 -18t-16.5 -46v-172q0 -30 16 -53.5t43 -23.5h75l116 -111q15 -15 30 -15q20 0 30 19q6 12 6 29v471q0 22 -10 32.5t-23 10.5zM521 170l-117 112q-6 6 -14 6h-84q-6 0 -11.5 11.5t-5.5 23.5v172
q0 22 17 22h94q9 0 15 7l106 106v-460zM628 538q-9 1 -15.5 -4.5t-7.5 -14.5t5 -15.5t14 -6.5q37 -3 61.5 -30.5t24.5 -64t-24.5 -64t-61.5 -29.5q-8 -1 -14 -7.5t-5 -15.5q1 -8 7 -13.5t14 -5.5h2q52 4 88 43.5t36 92.5t-36 92t-88 43zM513 822q-88 0 -168.5 -34.5
t-139 -92.5t-93 -138.5t-34.5 -169t34.5 -169t93 -139t139 -93t169 -34.5t169 34.5t139 93t93 139t34.5 169t-34.5 169t-93 138.5t-139 92.5t-169.5 34.5zM513 -20q-110 0 -204 54.5t-148.5 148.5t-54.5 204.5t54.5 204t148.5 148t204.5 54.5t204 -54.5t148 -148t54.5 -204
t-54.5 -204.5t-148 -148.5t-204.5 -54.5zM513 -20z" />
    <glyph glyph-name="uniE680" unicode="&#xe680;" 
d="M512 895q-104 0 -198.5 -40.5t-163 -109t-109 -163t-40.5 -198.5t40.5 -198.5t109 -163t163 -109t198.5 -40.5t198.5 40.5t163 109t109 163t40.5 198.5t-40.5 198.5t-109 163t-163 109t-198.5 40.5zM800 340h-576v88h576v-88z" />
    <glyph glyph-name="uniE681" unicode="&#xe681;" 
d="M177 79q-6 -7 -6 -15.5t6.5 -14.5t15 -6t14.5 6l619 640q6 7 6 15.5t-6.5 14.5t-15.5 6t-15 -6zM795 49q6 -6 15 -6t15.5 6t6.5 14.5t-6 15.5l-619 640q-6 6 -14.5 6t-15 -6t-6.5 -14.5t6 -15.5z" />
  </font>
</defs>
</svg>
